<?xml version="1.0" encoding="utf-8"?>
<!-- Generator: Adobe Illustrator 19.2.1, SVG Export Plug-In . SVG Version: 6.00 Build 0)  -->
<!DOCTYPE svg PUBLIC "-//W3C//DTD SVG 1.1//EN" "http://www.w3.org/Graphics/SVG/1.1/DTD/svg11.dtd">
<svg version="1.1" id="Layer_1" xmlns="http://www.w3.org/2000/svg" xmlns:xlink="http://www.w3.org/1999/xlink" x="0px" y="0px"
	 viewBox="0 0 389 382" style="enable-background:new 0 0 389 382;" xml:space="preserve">
<style type="text/css">
	.st0{display:none;}
	.st1{display:inline;}
	.st2{fill-rule:evenodd;clip-rule:evenodd;fill:#FFEC00;}
	.st3{fill-rule:evenodd;clip-rule:evenodd;fill:#C9D127;}
	.st4{fill-rule:evenodd;clip-rule:evenodd;fill:#B33385;}
	.st5{fill-rule:evenodd;clip-rule:evenodd;fill:#49ACDA;}
</style>
<g class="st0">
	<g class="st1">
		<path class="st2" d="M384.8,190.6h-0.4c-0.4,1.2-0.4,2.4-1.1,3.2l-0.2,0.2c-0.2-0.6-0.2-1.6-0.2-2.4h0.6
			c-1.5-2.6-0.2-8.1-0.9-11.6c-0.4-2-0.1-4.2-0.6-6.3c-0.9-3.9-0.9-8.3-1.9-11.9c-0.5-2.1-0.2-5-1.3-6.7v-0.6c0.2,0.2,0.1,0,0.2,0.4
			h0.4c0-1.7-0.4-3-1.1-3.9c0-0.5,0-0.9,0.2-1.1c0.2-0.3,0.4,0.4,0.6,0.6v0.2h0.2c-0.3-1.1-1-2.6-1.7-3.4c0.2-0.1,0.5-0.3,0.7-0.4
			c0.2,0.4,0.3,0.4,0.4,1.1c1.1-1.9-1.7-6.5-2.2-7.6c-0.3-0.6-0.2-1.3-0.6-1.9c0.2-0.5,0-0.4,0.6-0.6c-0.6-1.3-1.2-2.4-1.9-3.5
			c-0.4,0.1-0.9,0.1-1.3,0.2c-0.5-1.2-1-2.4-1.3-3.7c0.6-0.6,0.7-1.8,1.3-2.4v-0.4c-0.5-0.1-1-0.2-1.7-0.2c-0.1-0.6-0.2-2.2-0.2-2.2
			c-0.2-0.6-0.4-0.6-0.7-0.9c-0.5,0.3-0.3,0.1-0.4,0.7h-0.4c-0.2-1.1-0.5-2.2-0.7-3.4c-0.7-1.6-1.8-3.3-2.4-4.9
			c-0.3-0.8-0.6-2,0-2.6v-0.4H366v1.5h-0.2c-0.1-0.2-0.5-0.6-0.6-0.7l0.2-2.2c-0.4-1-1.7-1.9-2.2-2.8c-0.4-0.6-0.5-1.3-0.9-1.9v-0.6
			c0.7,0.2,1.3,0.9,1.7,1.5h0.4c0-0.6,0-1.3-0.2-1.7c-0.5-0.9-1.6-1.2-2.1-2.2c-0.8-1.9-1-4.8-2.4-6c0.2-0.6,0.4-0.7,0.6-1.3
			c-0.7-0.3-1.9-0.2-2.6,0c-1.1-2-2.4-4-3.7-6c-0.3-0.5-1-1-1.3-1.5c-0.3-0.6-0.2-1.3-0.6-1.9c-0.9-1.7-2.1-3.4-3.2-5
			c-0.7-1.1-3.3-4.1-3-5.4c-2.9,0.3-4.8-3.8-6.9-5.2v-0.4c1-0.2,2,0.1,2.6,0.7h0.4c-0.5-0.7-1.1-1.6-1.9-2.1
			c0.2-0.1,0.2-0.1,0.6-0.2v-0.2c-0.5-0.2-1-0.5-1.5-0.7h-0.2c0.1,0.2,0.1,0.4,0.2,0.6c-1-0.5-1.7-1.1-2.6-1.7
			c0.3-0.2,0.8-0.3,1.3-0.4c-0.5-1.4-2.4-2.3-3.5-3.2c-2.3-1.7-5.1-4.1-6.7-6.5h-0.4c-0.3,0.7-0.3,2.2-0.7,2.8l-0.2,0.2
			c-0.4-0.5-1.1-1.1-1.7-1.5V60c0.4,0.1,0.4,0,0.6,0.2h0.6V60c-0.7-0.2-1.2-0.5-1.7-0.9h-0.2v-0.2c0.5,0.1,1,0.1,1.3,0.4h0.7
			c-0.5-1.4-1.8-0.7-2.8-1.5c-0.1-0.1,0-1.1-0.4-1.5v-0.2c0.7,0.2,1.3,1,1.7,1.5h0.4c-0.8-2.1-3.4-3.1-3.2-5.8
			c-0.4,0.2-0.6,0.7-0.7,1.1c-1.8-0.1-2.1-1.2-3.2-2.1c0.1-0.7,0.3-1.2,0-1.7c-0.3-0.8-2.2-1.8-3-2.1c-0.6-0.2-1.3,0.1-1.5,0
			c-0.7-0.6-0.3-1.3-0.7-1.9c-0.5-0.2-1-0.4-1.5-0.6c-1.3-0.8-4.9-3.9-6.3-3c-0.7-0.8-1.5-1.6-2.2-2.4H302c0.3,1.5,2,1.9,2.8,3
			c-8.3-4-14.2-10.3-22.9-14c-2.1-0.9-9.2-1.9-8.6-4.5c-2.2-0.5-5.4-1.2-6.9-2.6H266V21c1.2,0,1.8-0.1,2.6,0.6h0.2v-0.4
			c-3-0.9-4.8-2.9-8.8-3c-0.2-2.3-3.3-2-4.9-3h-0.4c0.5,0.7,1.3,1,1.9,1.7c-1.6-0.6-3.2-1.1-4.9-1.7V15c0.4-0.3,0.9-0.6,1.3-0.9
			v-0.4c-2.6-1.2-5.5-1.5-8.8-2.2c-2.7-0.6-5.3,0.1-7.8-0.6c-2-0.5-3.8-1.8-5.6-2.2c-0.2,0.2,0,0.1-0.4,0.2c0.2,1.1,2.2,1.5,3.2,1.9
			v0.4c-4.4-0.2-6.7-3.4-10.6-4.3c-2.9-0.7-6.4,2.1-8.4,0.9h-1.3c0.1,0.2,0.2,0.4,0.4,0.6c-0.2,1.8-3.1,2.4-5,1.7
			c-0.7-0.2-1.3-0.9-1.9-1.3c0.1-0.4,0-0.4,0.2-0.6c0.2-0.5,0.4-0.4,0.7-0.7h1.3v0.2c-0.3,0.1-0.3,0.1-0.7,0.2v0.4
			c1.2-0.1,1.9-0.5,3.2-0.6l0.2-0.2c-0.1-0.4-0.1-0.5-0.2-0.7c-0.6,0.1-0.7,0.3-0.9,0.4c-0.5,0.2-5.4-0.9-5.8-1.1
			c-0.6-0.3-0.4-0.1-0.4-0.6c-0.6,0.1-1.1,0.1-1.7,0.2l-0.2,0.2c0.1,0.3,0,0.2,0.2,0.4v0.2c-2.6-0.9-8.8-0.6-11.9-0.6
			c0.4,0.3,1.6,0.6,2.1,0.7c-0.5,0.8-1.8-0.1-3,0.2c-2,0.4-3.4,0.9-4.9,1.9c-1,0-1.4-0.2-2.1-0.4c-0.1-0.4-0.1-0.7-0.2-1.1
			c-1.5,0.1-3.2,0.7-4.1,0h-0.4c0.2-1,1-0.9,1.7-1.5h0.4V5.3c-1.1,0.1-2.2,0.3-3.2,0.6c-2.7-0.1-5.3-0.1-8-0.2
			c0.4-0.3,1-0.5,1.7-0.6c-0.9-0.5-3,0.5-4.3,0.6c0.3,0.4,0.6,0.6,1.1,0.7c-0.8,0.5-1.6,0.2-2.4,0c-0.1,0.4-0.3,0.9,0,1.3
			c0,1.3-0.4,1.2-0.9,1.9c-2.5,0-4.4,0.8-6.7,0.6c0.5-0.4,1.5-0.5,2.2-0.6l0.2-0.2c-0.1-0.6,0-0.5-0.4-0.7c0.2-0.9,0.8-1.1,1.9-1.1
			V7.2c-1,0.4-2.1,0.6-3.5,0.6c0.1-0.1,0.4-0.2,0.6-0.4h0.4V7.2c-2.2,0.1-4.2,0.2-5.2,1.5c-0.3,0.4-0.5,1-0.9,1.3
			c-0.6,0.4-1.5,0.5-2.1,0.9c-1.7-0.3-1.2-1.1-3.7-0.7c0.3,0.2,1,0.2,1.3,0.4c0.1,0.1,0.1,0.1,0.2,0.2h-0.2
			c-0.7,2.1-2.6,1.5-4.7,2.2c-1.6,0.6-2.3,1.7-4.7,1.7V15c0.8-0.3,2.4-0.1,3.2-0.6h0.4v0.2c-1.2,0.7-3.3,1.1-4.3,2.1H138
			c0.3-0.4,0.7-0.6,1.3-0.7v-0.4c-1.2,0.3-2.1,1.2-3.4,1.5c-2.8,0.7-5.9,0-7.6,1.7c-1.4,0-1.5-0.6-2.1-1.3c-1.5,0.2-2.3,1.1-3.5,1.5
			c-2.6,0.9-5,0.6-6.7,2.2h-0.2c0.2,0.4,0.6,0.5,1.1,0.6c-0.4,1-1.3,1.4-1.9,2.2h-0.2v0.2c1.2-0.3,5.2-2.7,6-3.5h0.2
			c-0.6,0.9-2,2.2-3,2.8v0.4c1.6-0.8,3.7-1.8,5-3h0.2c-0.2,0.2-0.5,0.5-0.7,0.7c0.2,0.6-0.1,0.3,0.4,0.6c-0.7,0.2-1.4,0.4-2.1,0.6
			c-1.4,0.7-2.6,2-3.9,2.8c-0.7,0.4-1.5,0.5-2.1,0.9c-1.5-0.1-1.6-1.6-2.1-2.6c-6.9,1-10.2,7.7-16,9.1v0.4c0.7-0.2,1.6-0.4,2.1-0.7
			H99c-1.2,1.9-4,2.1-5.4,3.7c-0.5-0.1-3.3-0.2-3.5-0.4h-1.1c0.3,0.4,0.3,0.3,0.9,0.4v0.2c-1.3,0.8-3.1,2.2-3.9,3.5
			c-0.2,0.4-0.2,1-0.4,1.3c-1.3,0.9-3.5,0.9-4.9,1.9c-2.1,1.5-3.1,4.2-4.7,6.3c-0.6,0.9-1.6,1.5-2.2,2.4c-0.3-0.4-0.3-0.8-0.7-1.1
			c0.1-1,0.5-1.8,1.1-2.2v-0.4c-1.5,0.8-1.9,1.6-2.8,3c-0.4,0.3-0.9,0.6-1.3,0.9c-1.6,2.1-2.2,2.8-4.3,4.1c0.3,1.3-0.1,2.6-1.1,3.2
			v0.2c-0.1-0.1-0.2-0.2-0.4-0.4c-0.6,0.6-0.9,1.4-0.9,2.6c-4.3,2-8.4,7-11.2,10.6c-1.1,1.5-3.2,2.3-4.3,3.7c-0.2-0.3,0,0,0-0.6
			c-1.4,0.9-1.6,2.4-2.6,3.9c-1.8,2.6-4,5.1-5.6,7.8c-0.2-0.3,0,0,0-0.6c-0.1,0.1-0.1,0.1-0.2,0.2c-0.8,0.6-1.6,1.7-1.7,3v2.1
			c-0.3,0.8-2.2,3.4-2.8,4.1v0.2h-0.2c0.3-0.8,0.6-1.7,1.1-2.2v-0.4c-0.5,0.1-1,0.2-1.7,0.2c-2.1,2.2-2.5,4.3-4.1,6.9
			c-0.4,0.7-1.2,1.3-1.7,2.1c-0.1-0.2-0.1-0.2-0.2-0.6l-0.2,0.2c-1.1,0.7-1.1,1.9-1.7,3.2c-0.7,1.8-1.1,4-1.9,6
			c-0.3,0.8-0.9,1.7-1.1,2.6h-0.7c-0.1,2.7-0.7,6.2-1.5,8.4c-0.6,1.6-1.7,3.1-2.1,4.9h-1.3c0,1.1,0.7,1.3,0.6,2.1
			c-0.1,0.7-0.9,1.8-1.1,2.4c-0.4,0.9-0.3,1.9-0.7,2.8c-0.5,0.4-1,0.7-1.5,1.1h-0.2c0.2-1.1,0.7-2.9,1.3-3.7V132
			c-2.9,0.6-1.5,4.5-2.8,6.7v0.4c-0.2-0.1-0.4-0.2-0.6-0.4h-0.2c-1,4.8-0.6,11.4-1.7,15.3c-0.4,1.4-0.2,3.3-0.9,4.5
			c-0.1,0.9-0.5,1-1.3,1.1c0.6,2.9-0.1,6.4-0.2,9.1c-1.1-1.5,0.2-5.1-0.7-6.7v-0.4H7.6c-0.1,2.2-1.5,8.1-0.4,9.9v0.4h0.2
			c0-1.3,0-1.9,0-3c1.6,2.2-0.2,11.2-0.9,13.8c-0.1,0.8-0.1,1.6-0.2,2.4c-0.5,2.3,0,5-0.6,7.5c-0.3,1.4-0.8,3.1-1.1,4.3
			c0.2,2,0.5,4,0.7,6c0.1,2.9,0.1,5.7,0.2,8.6c0.6,2.5,0.1,5.4,0.7,8c0.3,2,0.6,4,0.9,6c0.5-0.3,0.8-0.7,0.9-1.3h0.4
			c0.3,1.3,0.6,2.3,1.1,3.2h0.6c0,0.6,0.1,1.3,0.4,1.7v0.7c-0.6-0.4-0.9-0.7-1.7-0.9c-0.2,0.2,0,0.1-0.4,0.2c0,0.7-0.2,1.1,0,1.5
			v0.4h0.2v-0.7h0.6c0.5,1,1.1,1.9,2.1,2.4c0,0.4,0,0.5,0.2,0.7v5l-0.2-0.2c-0.5-0.4-0.7-1.2-1.1-1.7v-0.2H9.8
			c0.1,2,0.6,3.3-0.6,4.5c0,2-0.1,1.3,0.7,1.9c1.2,1,0.8,2.9,1.7,4.3v0.2h0.2v-4.3h0.2c0.4,1.2,0.9,2.5,1.3,3.7v4.1
			c0.3,1.5,0.8,2.7,1.3,3.9c-0.2-0.2-0.5-0.5-0.7-0.7h-0.2c0.4,1.5,1.3,2.8,1.9,4.1c1.2,2.8,2.1,5.6,3.7,8c0.7,1,3.5,3.4,3.5,3.9
			c-0.1,0.4,0,0.4-0.2,0.6c-0.4,0.2-0.4,0-0.7-0.4h-0.2c0.5,1.9,1.6,3.2,2.4,4.7c1.1,1.8,1.8,3.5,3,5.2c1.5,2.1,3.5,4,5,6.2
			c0.9,1.3,1.8,2.6,2.6,3.9c0.6,1,0.7,2.2,1.5,3v0.4c-0.3-0.1-0.2,0-0.4-0.2h-0.6c0.5,0.9,0.9,0.9,1.7,1.5c0.8,0.6,1.2,1.6,1.9,2.2
			v0.2h-0.7c0.1,0.4,4.2,4.3,4.7,4.7v0.4c-0.4-0.2-0.8-0.5-1.1-0.7h-0.4c2,6,10.4,9.4,14,14.2c0.4,0.6,1.2,1.2,1.5,1.7
			c0.6,1.1,0.5,2.2,1.1,3.2c1.2,2,2.8,3.6,4.1,5.6c0.8,1.3,2.7,2.3,3.9,3.2c2.4,1.8,4.8,4,7.5,5.6c2.4,1.5,5.1,2.2,7.5,3.7
			c4.2,2.8,7.5,6.5,11.8,9.3c3.7,2.5,7.6,4.8,11.4,7.1c1.8,1.1,4.1,1.7,5.6,3.2h0.2c-0.1-0.4-0.2-0.4-0.4-0.7
			c0.2-0.1,0.4-0.2,0.6-0.4c1.2,0,5.8,1.9,6.5,2.4c0.1,0.4,0.2,0.7,0.4,1.1c0.7,0.6,1.4,1.2,2.1,1.9c1.7,1.1,4.3,1.2,6,2.4
			c0.9-0.1,1-0.5,1.3-1.1c3.5,0.4,7.8,3.2,11.2,4.3c2,0.7,4,0.5,6.2,1.1c1.5,0.4,3.4,1.1,4.9,1.5c1.6,0.4,3.2,0.2,4.7,0.9
			c0.6,0.3,1.3,1.2,1.9,1.5c1.7,0.7,5.4-0.5,6.9,0.4c0.6,0.4,0.3,0.4,0.2,0.9c1.5,0.6,3.2,0.5,4.9,0.9c3.6,0.9,7.6,1.6,12.1,1.5v0.2
			c-0.5,0.1-0.8,0.3-1.1,0.6h-0.2v0.2c4,0,4.8-2.7,8.8-1.9c2.8,0.6,6.2,0.5,9.1,1.1h3.5c1.1,0.2,3,0.2,4.1,0c2.7-0.6,6.2,0.2,8-1.1
			h0.4v0.2c-0.5,0.3-0.6,0.5-1.3,0.6c0.7,0.6,2.6,0.4,3.5,0.2h3.4c2-0.4,4-0.7,5.6-1.5c0.1-0.3,0.1-0.3,0.2-0.7
			c2.5,0.1,8.9-1.2,10.6-2.4c1,0.1,0.6,0.1,0.6,0.9c0.9-0.3,1.3-1.2,2.2-1.5c1.8-0.4,3.6-0.7,5.4-1.1c5.3-1.6,10.8-2.6,15.9-4.7
			c2.9-1.2,6-2.1,9-3.4c1.1-0.5,2.4-1.4,3.5-1.7c0.7,0.2,1.7,0.5,2.6,0.6l0.2,0.2c-0.1,0.7-0.3,1.1-0.7,1.5v0.4
			c2.3-1.5,4.1-3.8,6.3-5.4c1.3-0.9,3.6-1.7,4.7-2.6c0.8,0.1,0.5-0.1,0.6,0.6c1.8-0.8,3.5-2,5.4-2.6c0.6-0.1,1.2-0.1,1.9-0.2
			c1.6-0.9,3.1-1.9,4.7-2.8c0.1-0.5-0.1-1.2,0.4-1.7c-0.1-0.7,0-0.6-0.7-0.7v-0.2c1.7-0.6,2.9-2.2,4.5-2.8c0.9-0.4,2.2-0.1,3-0.6
			c2.8,0,3.4-2,5-3.2c3.7-2.7,6.6-5.4,9.3-9.1c0.8-1,2.2-1.5,3-2.6h0.2c-0.3,0.7-0.9,1.4-1.5,1.9v0.6c1.9-1.9,3.7-3.7,5.6-5.6
			c1-1.3,1.8-2.7,3.2-3.5c0.2,0,0.1-0.1,0.2,0.2c0.8-0.3,1.4-0.8,1.9-1.5c0.2,0.4,0.1,0.1,0,0.6c2-0.6,3.9-2.6,5-4.1
			c1.3-1.7,2.9-3.2,4.1-5c1.4-2.3,2.4-4.7,3.9-6.9c1.1-1.6,2.8-3.1,3.9-4.7c1.4-1.9,2.6-4.7,5-5.6v-0.4c-0.4,0.2-0.7,0.3-0.9,0.7
			h-0.2c0.9-1.1,1.9-2.1,2.8-3.2c1.7-2.5,3-5.1,4.7-7.6c1.7-2.6,3.7-5.4,5-8.4c2.5-5.8,5.1-11.4,8.2-16.6c0.7-1.1,0.8-2.3,1.5-3.4
			c0.6-0.9,1.4-2.1,1.9-3.2c0.3-0.6,0.2-1.2,0.6-1.7c0-1.5-0.2-3.7,0.2-4.9c0.5-0.1,1-0.1,1.5-0.2c-0.1-2.2-0.1-4.4-0.2-6.5
			c0.9-3.4,2.8-6,4.3-8.8c0.6-1.2,0.7-3.1,1.5-4.3v-4.3c-0.5,0.1-0.6,0.2-0.9,0.6h-0.2c0.1-1.8,0.7-7.7,1.9-8.2
			c-0.2-0.6-0.7-1.1-0.4-1.7l0.2-0.6h0.7c0-3.6-1-7.1,0.2-9.7c0.4-0.1,1.4-0.2,1.7-0.4C388.5,200.9,386,192.5,384.8,190.6z
			 M66.7,56.1l0.4-0.6C67.6,55.6,66.8,56.1,66.7,56.1z M290.8,352.7h-0.4v-0.2c0.5-0.2,0.8-0.4,1.1-0.7c0.3,0.1,0.2,0,0.4,0.2
			C291.6,352.2,291.1,352.4,290.8,352.7z M358,97.9c0.4,0.2,0.8,0.4,1.1,0.7C358.5,98.4,358.3,98.3,358,97.9z"/>
	</g>
</g>
<g class="st0">
	<g class="st1">
		<path class="st3" d="M384.8,190.6h-0.4c-0.4,1.2-0.4,2.4-1.1,3.2l-0.2,0.2c-0.2-0.6-0.2-1.6-0.2-2.4h0.6
			c-1.5-2.6-0.2-8.1-0.9-11.6c-0.4-2-0.1-4.2-0.6-6.3c-0.9-3.9-0.9-8.3-1.9-11.9c-0.5-2.1-0.2-5-1.3-6.7v-0.6c0.2,0.2,0.1,0,0.2,0.4
			h0.4c0-1.7-0.4-3-1.1-3.9c0-0.5,0-0.9,0.2-1.1c0.2-0.3,0.4,0.4,0.6,0.6v0.2h0.2c-0.3-1.1-1-2.6-1.7-3.4c0.2-0.1,0.5-0.3,0.7-0.4
			c0.2,0.4,0.3,0.4,0.4,1.1c1.1-1.9-1.7-6.5-2.2-7.6c-0.3-0.6-0.2-1.3-0.6-1.9c0.2-0.5,0-0.4,0.6-0.6c-0.6-1.3-1.2-2.4-1.9-3.5
			c-0.4,0.1-0.9,0.1-1.3,0.2c-0.5-1.2-1-2.4-1.3-3.7c0.6-0.6,0.7-1.8,1.3-2.4v-0.4c-0.5-0.1-1-0.2-1.7-0.2c-0.1-0.6-0.2-2.2-0.2-2.2
			c-0.2-0.6-0.4-0.6-0.7-0.9c-0.5,0.3-0.3,0.1-0.4,0.7h-0.4c-0.2-1.1-0.5-2.2-0.7-3.4c-0.7-1.6-1.8-3.3-2.4-4.9
			c-0.3-0.8-0.6-2,0-2.6v-0.4H366v1.5h-0.2c-0.1-0.2-0.5-0.6-0.6-0.7l0.2-2.2c-0.4-1-1.7-1.9-2.2-2.8c-0.4-0.6-0.5-1.3-0.9-1.9v-0.6
			c0.7,0.2,1.3,0.9,1.7,1.5h0.4c0-0.6,0-1.3-0.2-1.7c-0.5-0.9-1.6-1.2-2.1-2.2c-0.8-1.9-1-4.8-2.4-6c0.2-0.6,0.4-0.7,0.6-1.3
			c-0.7-0.3-1.9-0.2-2.6,0c-1.1-2-2.4-4-3.7-6c-0.3-0.5-1-1-1.3-1.5c-0.3-0.6-0.2-1.3-0.6-1.9c-0.9-1.7-2.1-3.4-3.2-5
			c-0.7-1.1-3.3-4.1-3-5.4c-2.9,0.3-4.8-3.8-6.9-5.2v-0.4c1-0.2,2,0.1,2.6,0.7h0.4c-0.5-0.7-1.1-1.6-1.9-2.1
			c0.2-0.1,0.2-0.1,0.6-0.2v-0.2c-0.5-0.2-1-0.5-1.5-0.7h-0.2c0.1,0.2,0.1,0.4,0.2,0.6c-1-0.5-1.7-1.1-2.6-1.7
			c0.3-0.2,0.8-0.3,1.3-0.4c-0.5-1.4-2.4-2.3-3.5-3.2c-2.3-1.7-5.1-4.1-6.7-6.5h-0.4c-0.3,0.7-0.3,2.2-0.7,2.8l-0.2,0.2
			c-0.4-0.5-1.1-1.1-1.7-1.5V60c0.4,0.1,0.4,0,0.6,0.2h0.6V60c-0.7-0.2-1.2-0.5-1.7-0.9h-0.2v-0.2c0.5,0.1,1,0.1,1.3,0.4h0.7
			c-0.5-1.4-1.8-0.7-2.8-1.5c-0.1-0.1,0-1.1-0.4-1.5v-0.2c0.7,0.2,1.3,1,1.7,1.5h0.4c-0.8-2.1-3.4-3.1-3.2-5.8
			c-0.4,0.2-0.6,0.7-0.7,1.1c-1.8-0.1-2.1-1.2-3.2-2.1c0.1-0.7,0.3-1.2,0-1.7c-0.3-0.8-2.2-1.8-3-2.1c-0.6-0.2-1.3,0.1-1.5,0
			c-0.7-0.6-0.3-1.3-0.7-1.9c-0.5-0.2-1-0.4-1.5-0.6c-1.3-0.8-4.9-3.9-6.3-3c-0.7-0.8-1.5-1.6-2.2-2.4H302c0.3,1.5,2,1.9,2.8,3
			c-8.3-4-14.2-10.3-22.9-14c-2.1-0.9-9.2-1.9-8.6-4.5c-2.2-0.5-5.4-1.2-6.9-2.6H266V21c1.2,0,1.8-0.1,2.6,0.6h0.2v-0.4
			c-3-0.9-4.8-2.9-8.8-3c-0.2-2.3-3.3-2-4.9-3h-0.4c0.5,0.7,1.3,1,1.9,1.7c-1.6-0.6-3.2-1.1-4.9-1.7V15c0.4-0.3,0.9-0.6,1.3-0.9
			v-0.4c-2.6-1.2-5.5-1.5-8.8-2.2c-2.7-0.6-5.3,0.1-7.8-0.6c-2-0.5-3.8-1.8-5.6-2.2c-0.2,0.2,0,0.1-0.4,0.2c0.2,1.1,2.2,1.5,3.2,1.9
			v0.4c-4.4-0.2-6.7-3.4-10.6-4.3c-2.9-0.7-6.4,2.1-8.4,0.9h-1.3c0.1,0.2,0.2,0.4,0.4,0.6c-0.2,1.8-3.1,2.4-5,1.7
			c-0.7-0.2-1.3-0.9-1.9-1.3c0.1-0.4,0-0.4,0.2-0.6c0.2-0.5,0.4-0.4,0.7-0.7h1.3v0.2c-0.3,0.1-0.3,0.1-0.7,0.2v0.4
			c1.2-0.1,1.9-0.5,3.2-0.6l0.2-0.2c-0.1-0.4-0.1-0.5-0.2-0.7c-0.6,0.1-0.7,0.3-0.9,0.4c-0.5,0.2-5.4-0.9-5.8-1.1
			c-0.6-0.3-0.4-0.1-0.4-0.6c-0.6,0.1-1.1,0.1-1.7,0.2l-0.2,0.2c0.1,0.3,0,0.2,0.2,0.4v0.2c-2.6-0.9-8.8-0.6-11.9-0.6
			c0.4,0.3,1.6,0.6,2.1,0.7c-0.5,0.8-1.8-0.1-3,0.2c-2,0.4-3.4,0.9-4.9,1.9c-1,0-1.4-0.2-2.1-0.4c-0.1-0.4-0.1-0.7-0.2-1.1
			c-1.5,0.1-3.2,0.7-4.1,0h-0.4c0.2-1,1-0.9,1.7-1.5h0.4V5.3c-1.1,0.1-2.2,0.3-3.2,0.6c-2.7-0.1-5.3-0.1-8-0.2
			c0.4-0.3,1-0.5,1.7-0.6c-0.9-0.5-3,0.5-4.3,0.6c0.3,0.4,0.6,0.6,1.1,0.7c-0.8,0.5-1.6,0.2-2.4,0c-0.1,0.4-0.3,0.9,0,1.3
			c0,1.3-0.4,1.2-0.9,1.9c-2.5,0-4.4,0.8-6.7,0.6c0.5-0.4,1.5-0.5,2.2-0.6l0.2-0.2c-0.1-0.6,0-0.5-0.4-0.7c0.2-0.9,0.8-1.1,1.9-1.1
			V7.2c-1,0.4-2.1,0.6-3.5,0.6c0.1-0.1,0.4-0.2,0.6-0.4h0.4V7.2c-2.2,0.1-4.2,0.2-5.2,1.5c-0.3,0.4-0.5,1-0.9,1.3
			c-0.6,0.4-1.5,0.5-2.1,0.9c-1.7-0.3-1.2-1.1-3.7-0.7c0.3,0.2,1,0.2,1.3,0.4c0.1,0.1,0.1,0.1,0.2,0.2h-0.2
			c-0.7,2.1-2.6,1.5-4.7,2.2c-1.6,0.6-2.3,1.7-4.7,1.7V15c0.8-0.3,2.4-0.1,3.2-0.6h0.4v0.2c-1.2,0.7-3.3,1.1-4.3,2.1H138
			c0.3-0.4,0.7-0.6,1.3-0.7v-0.4c-1.2,0.3-2.1,1.2-3.4,1.5c-2.8,0.7-5.9,0-7.6,1.7c-1.4,0-1.5-0.6-2.1-1.3c-1.5,0.2-2.3,1.1-3.5,1.5
			c-2.6,0.9-5,0.6-6.7,2.2h-0.2c0.2,0.4,0.6,0.5,1.1,0.6c-0.4,1-1.3,1.4-1.9,2.2h-0.2v0.2c1.2-0.3,5.2-2.7,6-3.5h0.2
			c-0.6,0.9-2,2.2-3,2.8v0.4c1.6-0.8,3.7-1.8,5-3h0.2c-0.2,0.2-0.5,0.5-0.7,0.7c0.2,0.6-0.1,0.3,0.4,0.6c-0.7,0.2-1.4,0.4-2.1,0.6
			c-1.4,0.7-2.6,2-3.9,2.8c-0.7,0.4-1.5,0.5-2.1,0.9c-1.5-0.1-1.6-1.6-2.1-2.6c-6.9,1-10.2,7.7-16,9.1v0.4c0.7-0.2,1.6-0.4,2.1-0.7
			H99c-1.2,1.9-4,2.1-5.4,3.7c-0.5-0.1-3.3-0.2-3.5-0.4h-1.1c0.3,0.4,0.3,0.3,0.9,0.4v0.2c-1.3,0.8-3.1,2.2-3.9,3.5
			c-0.2,0.4-0.2,1-0.4,1.3c-1.3,0.9-3.5,0.9-4.9,1.9c-2.1,1.5-3.1,4.2-4.7,6.3c-0.6,0.9-1.6,1.5-2.2,2.4c-0.3-0.4-0.3-0.8-0.7-1.1
			c0.1-1,0.5-1.8,1.1-2.2v-0.4c-1.5,0.8-1.9,1.6-2.8,3c-0.4,0.3-0.9,0.6-1.3,0.9c-1.6,2.1-2.2,2.8-4.3,4.1c0.3,1.3-0.1,2.6-1.1,3.2
			v0.2c-0.1-0.1-0.2-0.2-0.4-0.4c-0.6,0.6-0.9,1.4-0.9,2.6c-4.3,2-8.4,7-11.2,10.6c-1.1,1.5-3.2,2.3-4.3,3.7c-0.2-0.3,0,0,0-0.6
			c-1.4,0.9-1.6,2.4-2.6,3.9c-1.8,2.6-4,5.1-5.6,7.8c-0.2-0.3,0,0,0-0.6c-0.1,0.1-0.1,0.1-0.2,0.2c-0.8,0.6-1.6,1.7-1.7,3v2.1
			c-0.3,0.8-2.2,3.4-2.8,4.1v0.2h-0.2c0.3-0.8,0.6-1.7,1.1-2.2v-0.4c-0.5,0.1-1,0.2-1.7,0.2c-2.1,2.2-2.5,4.3-4.1,6.9
			c-0.4,0.7-1.2,1.3-1.7,2.1c-0.1-0.2-0.1-0.2-0.2-0.6l-0.2,0.2c-1.1,0.7-1.1,1.9-1.7,3.2c-0.7,1.8-1.1,4-1.9,6
			c-0.3,0.8-0.9,1.7-1.1,2.6h-0.7c-0.1,2.7-0.7,6.2-1.5,8.4c-0.6,1.6-1.7,3.1-2.1,4.9h-1.3c0,1.1,0.7,1.3,0.6,2.1
			c-0.1,0.7-0.9,1.8-1.1,2.4c-0.4,0.9-0.3,1.9-0.7,2.8c-0.5,0.4-1,0.7-1.5,1.1h-0.2c0.2-1.1,0.7-2.9,1.3-3.7V132
			c-2.9,0.6-1.5,4.5-2.8,6.7v0.4c-0.2-0.1-0.4-0.2-0.6-0.4h-0.2c-1,4.8-0.6,11.4-1.7,15.3c-0.4,1.4-0.2,3.3-0.9,4.5
			c-0.1,0.9-0.5,1-1.3,1.1c0.6,2.9-0.1,6.4-0.2,9.1c-1.1-1.5,0.2-5.1-0.7-6.7v-0.4H7.6c-0.1,2.2-1.5,8.1-0.4,9.9v0.4h0.2
			c0-1.3,0-1.9,0-3c1.6,2.2-0.2,11.2-0.9,13.8c-0.1,0.8-0.1,1.6-0.2,2.4c-0.5,2.3,0,5-0.6,7.5c-0.3,1.4-0.8,3.1-1.1,4.3
			c0.2,2,0.5,4,0.7,6c0.1,2.9,0.1,5.7,0.2,8.6c0.6,2.5,0.1,5.4,0.7,8c0.3,2,0.6,4,0.9,6c0.5-0.3,0.8-0.7,0.9-1.3h0.4
			c0.3,1.3,0.6,2.3,1.1,3.2h0.6c0,0.6,0.1,1.3,0.4,1.7v0.7c-0.6-0.4-0.9-0.7-1.7-0.9c-0.2,0.2,0,0.1-0.4,0.2c0,0.7-0.2,1.1,0,1.5
			v0.4h0.2v-0.7h0.6c0.5,1,1.1,1.9,2.1,2.4c0,0.4,0,0.5,0.2,0.7v5l-0.2-0.2c-0.5-0.4-0.7-1.2-1.1-1.7v-0.2H9.8
			c0.1,2,0.6,3.3-0.6,4.5c0,2-0.1,1.3,0.7,1.9c1.2,1,0.8,2.9,1.7,4.3v0.2h0.2v-4.3h0.2c0.4,1.2,0.9,2.5,1.3,3.7v4.1
			c0.3,1.5,0.8,2.7,1.3,3.9c-0.2-0.2-0.5-0.5-0.7-0.7h-0.2c0.4,1.5,1.3,2.8,1.9,4.1c1.2,2.8,2.1,5.6,3.7,8c0.7,1,3.5,3.4,3.5,3.9
			c-0.1,0.4,0,0.4-0.2,0.6c-0.4,0.2-0.4,0-0.7-0.4h-0.2c0.5,1.9,1.6,3.2,2.4,4.7c1.1,1.8,1.8,3.5,3,5.2c1.5,2.1,3.5,4,5,6.2
			c0.9,1.3,1.8,2.6,2.6,3.9c0.6,1,0.7,2.2,1.5,3v0.4c-0.3-0.1-0.2,0-0.4-0.2h-0.6c0.5,0.9,0.9,0.9,1.7,1.5c0.8,0.6,1.2,1.6,1.9,2.2
			v0.2h-0.7c0.1,0.4,4.2,4.3,4.7,4.7v0.4c-0.4-0.2-0.8-0.5-1.1-0.7h-0.4c2,6,10.4,9.4,14,14.2c0.4,0.6,1.2,1.2,1.5,1.7
			c0.6,1.1,0.5,2.2,1.1,3.2c1.2,2,2.8,3.6,4.1,5.6c0.8,1.3,2.7,2.3,3.9,3.2c2.4,1.8,4.8,4,7.5,5.6c2.4,1.5,5.1,2.2,7.5,3.7
			c4.2,2.8,7.5,6.5,11.8,9.3c3.7,2.5,7.6,4.8,11.4,7.1c1.8,1.1,4.1,1.7,5.6,3.2h0.2c-0.1-0.4-0.2-0.4-0.4-0.7
			c0.2-0.1,0.4-0.2,0.6-0.4c1.2,0,5.8,1.9,6.5,2.4c0.1,0.4,0.2,0.7,0.4,1.1c0.7,0.6,1.4,1.2,2.1,1.9c1.7,1.1,4.3,1.2,6,2.4
			c0.9-0.1,1-0.5,1.3-1.1c3.5,0.4,7.8,3.2,11.2,4.3c2,0.7,4,0.5,6.2,1.1c1.5,0.4,3.4,1.1,4.9,1.5c1.6,0.4,3.2,0.2,4.7,0.9
			c0.6,0.3,1.3,1.2,1.9,1.5c1.7,0.7,5.4-0.5,6.9,0.4c0.6,0.4,0.3,0.4,0.2,0.9c1.5,0.6,3.2,0.5,4.9,0.9c3.6,0.9,7.6,1.6,12.1,1.5v0.2
			c-0.5,0.1-0.8,0.3-1.1,0.6h-0.2v0.2c4,0,4.8-2.7,8.8-1.9c2.8,0.6,6.2,0.5,9.1,1.1h3.5c1.1,0.2,3,0.2,4.1,0c2.7-0.6,6.2,0.2,8-1.1
			h0.4v0.2c-0.5,0.3-0.6,0.5-1.3,0.6c0.7,0.6,2.6,0.4,3.5,0.2h3.4c2-0.4,4-0.7,5.6-1.5c0.1-0.3,0.1-0.3,0.2-0.7
			c2.5,0.1,8.9-1.2,10.6-2.4c1,0.1,0.6,0.1,0.6,0.9c0.9-0.3,1.3-1.2,2.2-1.5c1.8-0.4,3.6-0.7,5.4-1.1c5.3-1.6,10.8-2.6,15.9-4.7
			c2.9-1.2,6-2.1,9-3.4c1.1-0.5,2.4-1.4,3.5-1.7c0.7,0.2,1.7,0.5,2.6,0.6l0.2,0.2c-0.1,0.7-0.3,1.1-0.7,1.5v0.4
			c2.3-1.5,4.1-3.8,6.3-5.4c1.3-0.9,3.6-1.7,4.7-2.6c0.8,0.1,0.5-0.1,0.6,0.6c1.8-0.8,3.5-2,5.4-2.6c0.6-0.1,1.2-0.1,1.9-0.2
			c1.6-0.9,3.1-1.9,4.7-2.8c0.1-0.5-0.1-1.2,0.4-1.7c-0.1-0.7,0-0.6-0.7-0.7v-0.2c1.7-0.6,2.9-2.2,4.5-2.8c0.9-0.4,2.2-0.1,3-0.6
			c2.8,0,3.4-2,5-3.2c3.7-2.7,6.6-5.4,9.3-9.1c0.8-1,2.2-1.5,3-2.6h0.2c-0.3,0.7-0.9,1.4-1.5,1.9v0.6c1.9-1.9,3.7-3.7,5.6-5.6
			c1-1.3,1.8-2.7,3.2-3.5c0.2,0,0.1-0.1,0.2,0.2c0.8-0.3,1.4-0.8,1.9-1.5c0.2,0.4,0.1,0.1,0,0.6c2-0.6,3.9-2.6,5-4.1
			c1.3-1.7,2.9-3.2,4.1-5c1.4-2.3,2.4-4.7,3.9-6.9c1.1-1.6,2.8-3.1,3.9-4.7c1.4-1.9,2.6-4.7,5-5.6v-0.4c-0.4,0.2-0.7,0.3-0.9,0.7
			h-0.2c0.9-1.1,1.9-2.1,2.8-3.2c1.7-2.5,3-5.1,4.7-7.6c1.7-2.6,3.7-5.4,5-8.4c2.5-5.8,5.1-11.4,8.2-16.6c0.7-1.1,0.8-2.3,1.5-3.4
			c0.6-0.9,1.4-2.1,1.9-3.2c0.3-0.6,0.2-1.2,0.6-1.7c0-1.5-0.2-3.7,0.2-4.9c0.5-0.1,1-0.1,1.5-0.2c-0.1-2.2-0.1-4.4-0.2-6.5
			c0.9-3.4,2.8-6,4.3-8.8c0.6-1.2,0.7-3.1,1.5-4.3v-4.3c-0.5,0.1-0.6,0.2-0.9,0.6h-0.2c0.1-1.8,0.7-7.7,1.9-8.2
			c-0.2-0.6-0.7-1.1-0.4-1.7l0.2-0.6h0.7c0-3.6-1-7.1,0.2-9.7c0.4-0.1,1.4-0.2,1.7-0.4C388.5,200.9,386,192.5,384.8,190.6z
			 M66.7,56.1l0.4-0.6C67.6,55.6,66.8,56.1,66.7,56.1z M290.8,352.7h-0.4v-0.2c0.5-0.2,0.8-0.4,1.1-0.7c0.3,0.1,0.2,0,0.4,0.2
			C291.6,352.2,291.1,352.4,290.8,352.7z M358,97.9c0.4,0.2,0.8,0.4,1.1,0.7C358.5,98.4,358.3,98.3,358,97.9z"/>
	</g>
</g>
<g class="st0">
	<g class="st1">
		<path class="st4" d="M384.8,190.6h-0.4c-0.4,1.2-0.4,2.4-1.1,3.2l-0.2,0.2c-0.2-0.6-0.2-1.6-0.2-2.4h0.6
			c-1.5-2.6-0.2-8.1-0.9-11.6c-0.4-2-0.1-4.2-0.6-6.3c-0.9-3.9-0.9-8.3-1.9-11.9c-0.5-2.1-0.2-5-1.3-6.7v-0.6c0.2,0.2,0.1,0,0.2,0.4
			h0.4c0-1.7-0.4-3-1.1-3.9c0-0.5,0-0.9,0.2-1.1c0.2-0.3,0.4,0.4,0.6,0.6v0.2h0.2c-0.3-1.1-1-2.6-1.7-3.4c0.2-0.1,0.5-0.3,0.7-0.4
			c0.2,0.4,0.3,0.4,0.4,1.1c1.1-1.9-1.7-6.5-2.2-7.6c-0.3-0.6-0.2-1.3-0.6-1.9c0.2-0.5,0-0.4,0.6-0.6c-0.6-1.3-1.2-2.4-1.9-3.5
			c-0.4,0.1-0.9,0.1-1.3,0.2c-0.5-1.2-1-2.4-1.3-3.7c0.6-0.6,0.7-1.8,1.3-2.4v-0.4c-0.5-0.1-1-0.2-1.7-0.2c-0.1-0.6-0.2-2.2-0.2-2.2
			c-0.2-0.6-0.4-0.6-0.7-0.9c-0.5,0.3-0.3,0.1-0.4,0.7h-0.4c-0.2-1.1-0.5-2.2-0.7-3.4c-0.7-1.6-1.8-3.3-2.4-4.9
			c-0.3-0.8-0.6-2,0-2.6v-0.4H366v1.5h-0.2c-0.1-0.2-0.5-0.6-0.6-0.7l0.2-2.2c-0.4-1-1.7-1.9-2.2-2.8c-0.4-0.6-0.5-1.3-0.9-1.9v-0.6
			c0.7,0.2,1.3,0.9,1.7,1.5h0.4c0-0.6,0-1.3-0.2-1.7c-0.5-0.9-1.6-1.2-2.1-2.2c-0.8-1.9-1-4.8-2.4-6c0.2-0.6,0.4-0.7,0.6-1.3
			c-0.7-0.3-1.9-0.2-2.6,0c-1.1-2-2.4-4-3.7-6c-0.3-0.5-1-1-1.3-1.5c-0.3-0.6-0.2-1.3-0.6-1.9c-0.9-1.7-2.1-3.4-3.2-5
			c-0.7-1.1-3.3-4.1-3-5.4c-2.9,0.3-4.8-3.8-6.9-5.2v-0.4c1-0.2,2,0.1,2.6,0.7h0.4c-0.5-0.7-1.1-1.6-1.9-2.1
			c0.2-0.1,0.2-0.1,0.6-0.2v-0.2c-0.5-0.2-1-0.5-1.5-0.7h-0.2c0.1,0.2,0.1,0.4,0.2,0.6c-1-0.5-1.7-1.1-2.6-1.7
			c0.3-0.2,0.8-0.3,1.3-0.4c-0.5-1.4-2.4-2.3-3.5-3.2c-2.3-1.7-5.1-4.1-6.7-6.5h-0.4c-0.3,0.7-0.3,2.2-0.7,2.8l-0.2,0.2
			c-0.4-0.5-1.1-1.1-1.7-1.5V60c0.4,0.1,0.4,0,0.6,0.2h0.6V60c-0.7-0.2-1.2-0.5-1.7-0.9h-0.2v-0.2c0.5,0.1,1,0.1,1.3,0.4h0.7
			c-0.5-1.4-1.8-0.7-2.8-1.5c-0.1-0.1,0-1.1-0.4-1.5v-0.2c0.7,0.2,1.3,1,1.7,1.5h0.4c-0.8-2.1-3.4-3.1-3.2-5.8
			c-0.4,0.2-0.6,0.7-0.7,1.1c-1.8-0.1-2.1-1.2-3.2-2.1c0.1-0.7,0.3-1.2,0-1.7c-0.3-0.8-2.2-1.8-3-2.1c-0.6-0.2-1.3,0.1-1.5,0
			c-0.7-0.6-0.3-1.3-0.7-1.9c-0.5-0.2-1-0.4-1.5-0.6c-1.3-0.8-4.9-3.9-6.3-3c-0.7-0.8-1.5-1.6-2.2-2.4H302c0.3,1.5,2,1.9,2.8,3
			c-8.3-4-14.2-10.3-22.9-14c-2.1-0.9-9.2-1.9-8.6-4.5c-2.2-0.5-5.4-1.2-6.9-2.6H266V21c1.2,0,1.8-0.1,2.6,0.6h0.2v-0.4
			c-3-0.9-4.8-2.9-8.8-3c-0.2-2.3-3.3-2-4.9-3h-0.4c0.5,0.7,1.3,1,1.9,1.7c-1.6-0.6-3.2-1.1-4.9-1.7V15c0.4-0.3,0.9-0.6,1.3-0.9
			v-0.4c-2.6-1.2-5.5-1.5-8.8-2.2c-2.7-0.6-5.3,0.1-7.8-0.6c-2-0.5-3.8-1.8-5.6-2.2c-0.2,0.2,0,0.1-0.4,0.2c0.2,1.1,2.2,1.5,3.2,1.9
			v0.4c-4.4-0.2-6.7-3.4-10.6-4.3c-2.9-0.7-6.4,2.1-8.4,0.9h-1.3c0.1,0.2,0.2,0.4,0.4,0.6c-0.2,1.8-3.1,2.4-5,1.7
			c-0.7-0.2-1.3-0.9-1.9-1.3c0.1-0.4,0-0.4,0.2-0.6c0.2-0.5,0.4-0.4,0.7-0.7h1.3v0.2c-0.3,0.1-0.3,0.1-0.7,0.2v0.4
			c1.2-0.1,1.9-0.5,3.2-0.6l0.2-0.2c-0.1-0.4-0.1-0.5-0.2-0.7c-0.6,0.1-0.7,0.3-0.9,0.4c-0.5,0.2-5.4-0.9-5.8-1.1
			c-0.6-0.3-0.4-0.1-0.4-0.6c-0.6,0.1-1.1,0.1-1.7,0.2l-0.2,0.2c0.1,0.3,0,0.2,0.2,0.4v0.2c-2.6-0.9-8.8-0.6-11.9-0.6
			c0.4,0.3,1.6,0.6,2.1,0.7c-0.5,0.8-1.8-0.1-3,0.2c-2,0.4-3.4,0.9-4.9,1.9c-1,0-1.4-0.2-2.1-0.4c-0.1-0.4-0.1-0.7-0.2-1.1
			c-1.5,0.1-3.2,0.7-4.1,0h-0.4c0.2-1,1-0.9,1.7-1.5h0.4V5.3c-1.1,0.1-2.2,0.3-3.2,0.6c-2.7-0.1-5.3-0.1-8-0.2
			c0.4-0.3,1-0.5,1.7-0.6c-0.9-0.5-3,0.5-4.3,0.6c0.3,0.4,0.6,0.6,1.1,0.7c-0.8,0.5-1.6,0.2-2.4,0c-0.1,0.4-0.3,0.9,0,1.3
			c0,1.3-0.4,1.2-0.9,1.9c-2.5,0-4.4,0.8-6.7,0.6c0.5-0.4,1.5-0.5,2.2-0.6l0.2-0.2c-0.1-0.6,0-0.5-0.4-0.7c0.2-0.9,0.8-1.1,1.9-1.1
			V7.2c-1,0.4-2.1,0.6-3.5,0.6c0.1-0.1,0.4-0.2,0.6-0.4h0.4V7.2c-2.2,0.1-4.2,0.2-5.2,1.5c-0.3,0.4-0.5,1-0.9,1.3
			c-0.6,0.4-1.5,0.5-2.1,0.9c-1.7-0.3-1.2-1.1-3.7-0.7c0.3,0.2,1,0.2,1.3,0.4c0.1,0.1,0.1,0.1,0.2,0.2h-0.2
			c-0.7,2.1-2.6,1.5-4.7,2.2c-1.6,0.6-2.3,1.7-4.7,1.7V15c0.8-0.3,2.4-0.1,3.2-0.6h0.4v0.2c-1.2,0.7-3.3,1.1-4.3,2.1H138
			c0.3-0.4,0.7-0.6,1.3-0.7v-0.4c-1.2,0.3-2.1,1.2-3.4,1.5c-2.8,0.7-5.9,0-7.6,1.7c-1.4,0-1.5-0.6-2.1-1.3c-1.5,0.2-2.3,1.1-3.5,1.5
			c-2.6,0.9-5,0.6-6.7,2.2h-0.2c0.2,0.4,0.6,0.5,1.1,0.6c-0.4,1-1.3,1.4-1.9,2.2h-0.2v0.2c1.2-0.3,5.2-2.7,6-3.5h0.2
			c-0.6,0.9-2,2.2-3,2.8v0.4c1.6-0.8,3.7-1.8,5-3h0.2c-0.2,0.2-0.5,0.5-0.7,0.7c0.2,0.6-0.1,0.3,0.4,0.6c-0.7,0.2-1.4,0.4-2.1,0.6
			c-1.4,0.7-2.6,2-3.9,2.8c-0.7,0.4-1.5,0.5-2.1,0.9c-1.5-0.1-1.6-1.6-2.1-2.6c-6.9,1-10.2,7.7-16,9.1v0.4c0.7-0.2,1.6-0.4,2.1-0.7
			H99c-1.2,1.9-4,2.1-5.4,3.7c-0.5-0.1-3.3-0.2-3.5-0.4h-1.1c0.3,0.4,0.3,0.3,0.9,0.4v0.2c-1.3,0.8-3.1,2.2-3.9,3.5
			c-0.2,0.4-0.2,1-0.4,1.3c-1.3,0.9-3.5,0.9-4.9,1.9c-2.1,1.5-3.1,4.2-4.7,6.3c-0.6,0.9-1.6,1.5-2.2,2.4c-0.3-0.4-0.3-0.8-0.7-1.1
			c0.1-1,0.5-1.8,1.1-2.2v-0.4c-1.5,0.8-1.9,1.6-2.8,3c-0.4,0.3-0.9,0.6-1.3,0.9c-1.6,2.1-2.2,2.8-4.3,4.1c0.3,1.3-0.1,2.6-1.1,3.2
			v0.2c-0.1-0.1-0.2-0.2-0.4-0.4c-0.6,0.6-0.9,1.4-0.9,2.6c-4.3,2-8.4,7-11.2,10.6c-1.1,1.5-3.2,2.3-4.3,3.7c-0.2-0.3,0,0,0-0.6
			c-1.4,0.9-1.6,2.4-2.6,3.9c-1.8,2.6-4,5.1-5.6,7.8c-0.2-0.3,0,0,0-0.6c-0.1,0.1-0.1,0.1-0.2,0.2c-0.8,0.6-1.6,1.7-1.7,3v2.1
			c-0.3,0.8-2.2,3.4-2.8,4.1v0.2h-0.2c0.3-0.8,0.6-1.7,1.1-2.2v-0.4c-0.5,0.1-1,0.2-1.7,0.2c-2.1,2.2-2.5,4.3-4.1,6.9
			c-0.4,0.7-1.2,1.3-1.7,2.1c-0.1-0.2-0.1-0.2-0.2-0.6l-0.2,0.2c-1.1,0.7-1.1,1.9-1.7,3.2c-0.7,1.8-1.1,4-1.9,6
			c-0.3,0.8-0.9,1.7-1.1,2.6h-0.7c-0.1,2.7-0.7,6.2-1.5,8.4c-0.6,1.6-1.7,3.1-2.1,4.9h-1.3c0,1.1,0.7,1.3,0.6,2.1
			c-0.1,0.7-0.9,1.8-1.1,2.4c-0.4,0.9-0.3,1.9-0.7,2.8c-0.5,0.4-1,0.7-1.5,1.1h-0.2c0.2-1.1,0.7-2.9,1.3-3.7V132
			c-2.9,0.6-1.5,4.5-2.8,6.7v0.4c-0.2-0.1-0.4-0.2-0.6-0.4h-0.2c-1,4.8-0.6,11.4-1.7,15.3c-0.4,1.4-0.2,3.3-0.9,4.5
			c-0.1,0.9-0.5,1-1.3,1.1c0.6,2.9-0.1,6.4-0.2,9.1c-1.1-1.5,0.2-5.1-0.7-6.7v-0.4H7.6c-0.1,2.2-1.5,8.1-0.4,9.9v0.4h0.2
			c0-1.3,0-1.9,0-3c1.6,2.2-0.2,11.2-0.9,13.8c-0.1,0.8-0.1,1.6-0.2,2.4c-0.5,2.3,0,5-0.6,7.5c-0.3,1.4-0.8,3.1-1.1,4.3
			c0.2,2,0.5,4,0.7,6c0.1,2.9,0.1,5.7,0.2,8.6c0.6,2.5,0.1,5.4,0.7,8c0.3,2,0.6,4,0.9,6c0.5-0.3,0.8-0.7,0.9-1.3h0.4
			c0.3,1.3,0.6,2.3,1.1,3.2h0.6c0,0.6,0.1,1.3,0.4,1.7v0.7c-0.6-0.4-0.9-0.7-1.7-0.9c-0.2,0.2,0,0.1-0.4,0.2c0,0.7-0.2,1.1,0,1.5
			v0.4h0.2v-0.7h0.6c0.5,1,1.1,1.9,2.1,2.4c0,0.4,0,0.5,0.2,0.7v5l-0.2-0.2c-0.5-0.4-0.7-1.2-1.1-1.7v-0.2H9.8
			c0.1,2,0.6,3.3-0.6,4.5c0,2-0.1,1.3,0.7,1.9c1.2,1,0.8,2.9,1.7,4.3v0.2h0.2v-4.3h0.2c0.4,1.2,0.9,2.5,1.3,3.7v4.1
			c0.3,1.5,0.8,2.7,1.3,3.9c-0.2-0.2-0.5-0.5-0.7-0.7h-0.2c0.4,1.5,1.3,2.8,1.9,4.1c1.2,2.8,2.1,5.6,3.7,8c0.7,1,3.5,3.4,3.5,3.9
			c-0.1,0.4,0,0.4-0.2,0.6c-0.4,0.2-0.4,0-0.7-0.4h-0.2c0.5,1.9,1.6,3.2,2.4,4.7c1.1,1.8,1.8,3.5,3,5.2c1.5,2.1,3.5,4,5,6.2
			c0.9,1.3,1.8,2.6,2.6,3.9c0.6,1,0.7,2.2,1.5,3v0.4c-0.3-0.1-0.2,0-0.4-0.2h-0.6c0.5,0.9,0.9,0.9,1.7,1.5c0.8,0.6,1.2,1.6,1.9,2.2
			v0.2h-0.7c0.1,0.4,4.2,4.3,4.7,4.7v0.4c-0.4-0.2-0.8-0.5-1.1-0.7h-0.4c2,6,10.4,9.4,14,14.2c0.4,0.6,1.2,1.2,1.5,1.7
			c0.6,1.1,0.5,2.2,1.1,3.2c1.2,2,2.8,3.6,4.1,5.6c0.8,1.3,2.7,2.3,3.9,3.2c2.4,1.8,4.8,4,7.5,5.6c2.4,1.5,5.1,2.2,7.5,3.7
			c4.2,2.8,7.5,6.5,11.8,9.3c3.7,2.5,7.6,4.8,11.4,7.1c1.8,1.1,4.1,1.7,5.6,3.2h0.2c-0.1-0.4-0.2-0.4-0.4-0.7
			c0.2-0.1,0.4-0.2,0.6-0.4c1.2,0,5.8,1.9,6.5,2.4c0.1,0.4,0.2,0.7,0.4,1.1c0.7,0.6,1.4,1.2,2.1,1.9c1.7,1.1,4.3,1.2,6,2.4
			c0.9-0.1,1-0.5,1.3-1.1c3.5,0.4,7.8,3.2,11.2,4.3c2,0.7,4,0.5,6.2,1.1c1.5,0.4,3.4,1.1,4.9,1.5c1.6,0.4,3.2,0.2,4.7,0.9
			c0.6,0.3,1.3,1.2,1.9,1.5c1.7,0.7,5.4-0.5,6.9,0.4c0.6,0.4,0.3,0.4,0.2,0.9c1.5,0.6,3.2,0.5,4.9,0.9c3.6,0.9,7.6,1.6,12.1,1.5v0.2
			c-0.5,0.1-0.8,0.3-1.1,0.6h-0.2v0.2c4,0,4.8-2.7,8.8-1.9c2.8,0.6,6.2,0.5,9.1,1.1h3.5c1.1,0.2,3,0.2,4.1,0c2.7-0.6,6.2,0.2,8-1.1
			h0.4v0.2c-0.5,0.3-0.6,0.5-1.3,0.6c0.7,0.6,2.6,0.4,3.5,0.2h3.4c2-0.4,4-0.7,5.6-1.5c0.1-0.3,0.1-0.3,0.2-0.7
			c2.5,0.1,8.9-1.2,10.6-2.4c1,0.1,0.6,0.1,0.6,0.9c0.9-0.3,1.3-1.2,2.2-1.5c1.8-0.4,3.6-0.7,5.4-1.1c5.3-1.6,10.8-2.6,15.9-4.7
			c2.9-1.2,6-2.1,9-3.4c1.1-0.5,2.4-1.4,3.5-1.7c0.7,0.2,1.7,0.5,2.6,0.6l0.2,0.2c-0.1,0.7-0.3,1.1-0.7,1.5v0.4
			c2.3-1.5,4.1-3.8,6.3-5.4c1.3-0.9,3.6-1.7,4.7-2.6c0.8,0.1,0.5-0.1,0.6,0.6c1.8-0.8,3.5-2,5.4-2.6c0.6-0.1,1.2-0.1,1.9-0.2
			c1.6-0.9,3.1-1.9,4.7-2.8c0.1-0.5-0.1-1.2,0.4-1.7c-0.1-0.7,0-0.6-0.7-0.7v-0.2c1.7-0.6,2.9-2.2,4.5-2.8c0.9-0.4,2.2-0.1,3-0.6
			c2.8,0,3.4-2,5-3.2c3.7-2.7,6.6-5.4,9.3-9.1c0.8-1,2.2-1.5,3-2.6h0.2c-0.3,0.7-0.9,1.4-1.5,1.9v0.6c1.9-1.9,3.7-3.7,5.6-5.6
			c1-1.3,1.8-2.7,3.2-3.5c0.2,0,0.1-0.1,0.2,0.2c0.8-0.3,1.4-0.8,1.9-1.5c0.2,0.4,0.1,0.1,0,0.6c2-0.6,3.9-2.6,5-4.1
			c1.3-1.7,2.9-3.2,4.1-5c1.4-2.3,2.4-4.7,3.9-6.9c1.1-1.6,2.8-3.1,3.9-4.7c1.4-1.9,2.6-4.7,5-5.6v-0.4c-0.4,0.2-0.7,0.3-0.9,0.7
			h-0.2c0.9-1.1,1.9-2.1,2.8-3.2c1.7-2.5,3-5.1,4.7-7.6c1.7-2.6,3.7-5.4,5-8.4c2.5-5.8,5.1-11.4,8.2-16.6c0.7-1.1,0.8-2.3,1.5-3.4
			c0.6-0.9,1.4-2.1,1.9-3.2c0.3-0.6,0.2-1.2,0.6-1.7c0-1.5-0.2-3.7,0.2-4.9c0.5-0.1,1-0.1,1.5-0.2c-0.1-2.2-0.1-4.4-0.2-6.5
			c0.9-3.4,2.8-6,4.3-8.8c0.6-1.2,0.7-3.1,1.5-4.3v-4.3c-0.5,0.1-0.6,0.2-0.9,0.6h-0.2c0.1-1.8,0.7-7.7,1.9-8.2
			c-0.2-0.6-0.7-1.1-0.4-1.7l0.2-0.6h0.7c0-3.6-1-7.1,0.2-9.7c0.4-0.1,1.4-0.2,1.7-0.4C388.5,200.9,386,192.5,384.8,190.6z
			 M66.7,56.1l0.4-0.6C67.6,55.6,66.8,56.1,66.7,56.1z M290.8,352.7h-0.4v-0.2c0.5-0.2,0.8-0.4,1.1-0.7c0.3,0.1,0.2,0,0.4,0.2
			C291.6,352.2,291.1,352.4,290.8,352.7z M358,97.9c0.4,0.2,0.8,0.4,1.1,0.7C358.5,98.4,358.3,98.3,358,97.9z"/>
	</g>
</g>
<g>
	<g>
		<path class="st5" d="M384.8,190.6h-0.4c-0.4,1.2-0.4,2.4-1.1,3.2l-0.2,0.2c-0.2-0.6-0.2-1.6-0.2-2.4h0.6
			c-1.5-2.6-0.2-8.1-0.9-11.6c-0.4-2-0.1-4.2-0.6-6.3c-0.9-3.9-0.9-8.3-1.9-11.9c-0.5-2.1-0.2-5-1.3-6.7v-0.6c0.2,0.2,0.1,0,0.2,0.4
			h0.4c0-1.7-0.4-3-1.1-3.9c0-0.5,0-0.9,0.2-1.1c0.2-0.3,0.4,0.4,0.6,0.6v0.2h0.2c-0.3-1.1-1-2.6-1.7-3.4c0.2-0.1,0.5-0.3,0.7-0.4
			c0.2,0.4,0.3,0.4,0.4,1.1c1.1-1.9-1.7-6.5-2.2-7.6c-0.3-0.6-0.2-1.3-0.6-1.9c0.2-0.5,0-0.4,0.6-0.6c-0.6-1.3-1.2-2.4-1.9-3.5
			c-0.4,0.1-0.9,0.1-1.3,0.2c-0.5-1.2-1-2.4-1.3-3.7c0.6-0.6,0.7-1.8,1.3-2.4v-0.4c-0.5-0.1-1-0.2-1.7-0.2c-0.1-0.6-0.2-2.2-0.2-2.2
			c-0.2-0.6-0.4-0.6-0.7-0.9c-0.5,0.3-0.3,0.1-0.4,0.7h-0.4c-0.2-1.1-0.5-2.2-0.7-3.4c-0.7-1.6-1.8-3.3-2.4-4.9
			c-0.3-0.8-0.6-2,0-2.6v-0.4H366v1.5h-0.2c-0.1-0.2-0.5-0.6-0.6-0.7l0.2-2.2c-0.4-1-1.7-1.9-2.2-2.8c-0.4-0.6-0.5-1.3-0.9-1.9v-0.6
			c0.7,0.2,1.3,0.9,1.7,1.5h0.4c0-0.6,0-1.3-0.2-1.7c-0.5-0.9-1.6-1.2-2.1-2.2c-0.8-1.9-1-4.8-2.4-6c0.2-0.6,0.4-0.7,0.6-1.3
			c-0.7-0.3-1.9-0.2-2.6,0c-1.1-2-2.4-4-3.7-6c-0.3-0.5-1-1-1.3-1.5c-0.3-0.6-0.2-1.3-0.6-1.9c-0.9-1.7-2.1-3.4-3.2-5
			c-0.7-1.1-3.3-4.1-3-5.4c-2.9,0.3-4.8-3.8-6.9-5.2v-0.4c1-0.2,2,0.1,2.6,0.7h0.4c-0.5-0.7-1.1-1.6-1.9-2.1
			c0.2-0.1,0.2-0.1,0.6-0.2v-0.2c-0.5-0.2-1-0.5-1.5-0.7h-0.2c0.1,0.2,0.1,0.4,0.2,0.6c-1-0.5-1.7-1.1-2.6-1.7
			c0.3-0.2,0.8-0.3,1.3-0.4c-0.5-1.4-2.4-2.3-3.5-3.2c-2.3-1.7-5.1-4.1-6.7-6.5h-0.4c-0.3,0.7-0.3,2.2-0.7,2.8l-0.2,0.2
			c-0.4-0.5-1.1-1.1-1.7-1.5V60c0.4,0.1,0.4,0,0.6,0.2h0.6V60c-0.7-0.2-1.2-0.5-1.7-0.9h-0.2v-0.2c0.5,0.1,1,0.1,1.3,0.4h0.7
			c-0.5-1.4-1.8-0.7-2.8-1.5c-0.1-0.1,0-1.1-0.4-1.5v-0.2c0.7,0.2,1.3,1,1.7,1.5h0.4c-0.8-2.1-3.4-3.1-3.2-5.8
			c-0.4,0.2-0.6,0.7-0.7,1.1c-1.8-0.1-2.1-1.2-3.2-2.1c0.1-0.7,0.3-1.2,0-1.7c-0.3-0.8-2.2-1.8-3-2.1c-0.6-0.2-1.3,0.1-1.5,0
			c-0.7-0.6-0.3-1.3-0.7-1.9c-0.5-0.2-1-0.4-1.5-0.6c-1.3-0.8-4.9-3.9-6.3-3c-0.7-0.8-1.5-1.6-2.2-2.4H302c0.3,1.5,2,1.9,2.8,3
			c-8.3-4-14.2-10.3-22.9-14c-2.1-0.9-9.2-1.9-8.6-4.5c-2.2-0.5-5.4-1.2-6.9-2.6H266V21c1.2,0,1.8-0.1,2.6,0.6h0.2v-0.4
			c-3-0.9-4.8-2.9-8.8-3c-0.2-2.3-3.3-2-4.9-3h-0.4c0.5,0.7,1.3,1,1.9,1.7c-1.6-0.6-3.2-1.1-4.9-1.7V15c0.4-0.3,0.9-0.6,1.3-0.9
			v-0.4c-2.6-1.2-5.5-1.5-8.8-2.2c-2.7-0.6-5.3,0.1-7.8-0.6c-2-0.5-3.8-1.8-5.6-2.2c-0.2,0.2,0,0.1-0.4,0.2c0.2,1.1,2.2,1.5,3.2,1.9
			v0.4c-4.4-0.2-6.7-3.4-10.6-4.3c-2.9-0.7-6.4,2.1-8.4,0.9h-1.3c0.1,0.2,0.2,0.4,0.4,0.6c-0.2,1.8-3.1,2.4-5,1.7
			c-0.7-0.2-1.3-0.9-1.9-1.3c0.1-0.4,0-0.4,0.2-0.6c0.2-0.5,0.4-0.4,0.7-0.7h1.3v0.2c-0.3,0.1-0.3,0.1-0.7,0.2v0.4
			c1.2-0.1,1.9-0.5,3.2-0.6l0.2-0.2c-0.1-0.4-0.1-0.5-0.2-0.7c-0.6,0.1-0.7,0.3-0.9,0.4c-0.5,0.2-5.4-0.9-5.8-1.1
			c-0.6-0.3-0.4-0.1-0.4-0.6c-0.6,0.1-1.1,0.1-1.7,0.2l-0.2,0.2c0.1,0.3,0,0.2,0.2,0.4v0.2c-2.6-0.9-8.8-0.6-11.9-0.6
			c0.4,0.3,1.6,0.6,2.1,0.7c-0.5,0.8-1.8-0.1-3,0.2c-2,0.4-3.4,0.9-4.9,1.9c-1,0-1.4-0.2-2.1-0.4c-0.1-0.4-0.1-0.7-0.2-1.1
			c-1.5,0.1-3.2,0.7-4.1,0h-0.4c0.2-1,1-0.9,1.7-1.5h0.4V5.3c-1.1,0.1-2.2,0.3-3.2,0.6c-2.7-0.1-5.3-0.1-8-0.2
			c0.4-0.3,1-0.5,1.7-0.6c-0.9-0.5-3,0.5-4.3,0.6c0.3,0.4,0.6,0.6,1.1,0.7c-0.8,0.5-1.6,0.2-2.4,0c-0.1,0.4-0.3,0.9,0,1.3
			c0,1.3-0.4,1.2-0.9,1.9c-2.5,0-4.4,0.8-6.7,0.6c0.5-0.4,1.5-0.5,2.2-0.6l0.2-0.2c-0.1-0.6,0-0.5-0.4-0.7c0.2-0.9,0.8-1.1,1.9-1.1
			V7.2c-1,0.4-2.1,0.6-3.5,0.6c0.1-0.1,0.4-0.2,0.6-0.4h0.4V7.2c-2.2,0.1-4.2,0.2-5.2,1.5c-0.3,0.4-0.5,1-0.9,1.3
			c-0.6,0.4-1.5,0.5-2.1,0.9c-1.7-0.3-1.2-1.1-3.7-0.7c0.3,0.2,1,0.2,1.3,0.4c0.1,0.1,0.1,0.1,0.2,0.2h-0.2
			c-0.7,2.1-2.6,1.5-4.7,2.2c-1.6,0.6-2.3,1.7-4.7,1.7V15c0.8-0.3,2.4-0.1,3.2-0.6h0.4v0.2c-1.2,0.7-3.3,1.1-4.3,2.1H138
			c0.3-0.4,0.7-0.6,1.3-0.7v-0.4c-1.2,0.3-2.1,1.2-3.4,1.5c-2.8,0.7-5.9,0-7.6,1.7c-1.4,0-1.5-0.6-2.1-1.3c-1.5,0.2-2.3,1.1-3.5,1.5
			c-2.6,0.9-5,0.6-6.7,2.2h-0.2c0.2,0.4,0.6,0.5,1.1,0.6c-0.4,1-1.3,1.4-1.9,2.2h-0.2v0.2c1.2-0.3,5.2-2.7,6-3.5h0.2
			c-0.6,0.9-2,2.2-3,2.8v0.4c1.6-0.8,3.7-1.8,5-3h0.2c-0.2,0.2-0.5,0.5-0.7,0.7c0.2,0.6-0.1,0.3,0.4,0.6c-0.7,0.2-1.4,0.4-2.1,0.6
			c-1.4,0.7-2.6,2-3.9,2.8c-0.7,0.4-1.5,0.5-2.1,0.9c-1.5-0.1-1.6-1.6-2.1-2.6c-6.9,1-10.2,7.7-16,9.1v0.4c0.7-0.2,1.6-0.4,2.1-0.7
			H99c-1.2,1.9-4,2.1-5.4,3.7c-0.5-0.1-3.3-0.2-3.5-0.4h-1.1c0.3,0.4,0.3,0.3,0.9,0.4v0.2c-1.3,0.8-3.1,2.2-3.9,3.5
			c-0.2,0.4-0.2,1-0.4,1.3c-1.3,0.9-3.5,0.9-4.9,1.9c-2.1,1.5-3.1,4.2-4.7,6.3c-0.6,0.9-1.6,1.5-2.2,2.4c-0.3-0.4-0.3-0.8-0.7-1.1
			c0.1-1,0.5-1.8,1.1-2.2v-0.4c-1.5,0.8-1.9,1.6-2.8,3c-0.4,0.3-0.9,0.6-1.3,0.9c-1.6,2.1-2.2,2.8-4.3,4.1c0.3,1.3-0.1,2.6-1.1,3.2
			v0.2c-0.1-0.1-0.2-0.2-0.4-0.4c-0.6,0.6-0.9,1.4-0.9,2.6c-4.3,2-8.4,7-11.2,10.6c-1.1,1.5-3.2,2.3-4.3,3.7c-0.2-0.3,0,0,0-0.6
			c-1.4,0.9-1.6,2.4-2.6,3.9c-1.8,2.6-4,5.1-5.6,7.8c-0.2-0.3,0,0,0-0.6c-0.1,0.1-0.1,0.1-0.2,0.2c-0.8,0.6-1.6,1.7-1.7,3v2.1
			c-0.3,0.8-2.2,3.4-2.8,4.1v0.2h-0.2c0.3-0.8,0.6-1.7,1.1-2.2v-0.4c-0.5,0.1-1,0.2-1.7,0.2c-2.1,2.2-2.5,4.3-4.1,6.9
			c-0.4,0.7-1.2,1.3-1.7,2.1c-0.1-0.2-0.1-0.2-0.2-0.6l-0.2,0.2c-1.1,0.7-1.1,1.9-1.7,3.2c-0.7,1.8-1.1,4-1.9,6
			c-0.3,0.8-0.9,1.7-1.1,2.6h-0.7c-0.1,2.7-0.7,6.2-1.5,8.4c-0.6,1.6-1.7,3.1-2.1,4.9h-1.3c0,1.1,0.7,1.3,0.6,2.1
			c-0.1,0.7-0.9,1.8-1.1,2.4c-0.4,0.9-0.3,1.9-0.7,2.8c-0.5,0.4-1,0.7-1.5,1.1h-0.2c0.2-1.1,0.7-2.9,1.3-3.7V132
			c-2.9,0.6-1.5,4.5-2.8,6.7v0.4c-0.2-0.1-0.4-0.2-0.6-0.4h-0.2c-1,4.8-0.6,11.4-1.7,15.3c-0.4,1.4-0.2,3.3-0.9,4.5
			c-0.1,0.9-0.5,1-1.3,1.1c0.6,2.9-0.1,6.4-0.2,9.1c-1.1-1.5,0.2-5.1-0.7-6.7v-0.4H7.6c-0.1,2.2-1.5,8.1-0.4,9.9v0.4h0.2
			c0-1.3,0-1.9,0-3c1.6,2.2-0.2,11.2-0.9,13.8c-0.1,0.8-0.1,1.6-0.2,2.4c-0.5,2.3,0,5-0.6,7.5c-0.3,1.4-0.8,3.1-1.1,4.3
			c0.2,2,0.5,4,0.7,6c0.1,2.9,0.1,5.7,0.2,8.6c0.6,2.5,0.1,5.4,0.7,8c0.3,2,0.6,4,0.9,6c0.5-0.3,0.8-0.7,0.9-1.3h0.4
			c0.3,1.3,0.6,2.3,1.1,3.2h0.6c0,0.6,0.1,1.3,0.4,1.7v0.7c-0.6-0.4-0.9-0.7-1.7-0.9c-0.2,0.2,0,0.1-0.4,0.2c0,0.7-0.2,1.1,0,1.5
			v0.4h0.2v-0.7h0.6c0.5,1,1.1,1.9,2.1,2.4c0,0.4,0,0.5,0.2,0.7v5l-0.2-0.2c-0.5-0.4-0.7-1.2-1.1-1.7v-0.2H9.8
			c0.1,2,0.6,3.3-0.6,4.5c0,2-0.1,1.3,0.7,1.9c1.2,1,0.8,2.9,1.7,4.3v0.2h0.2v-4.3h0.2c0.4,1.2,0.9,2.5,1.3,3.7v4.1
			c0.3,1.5,0.8,2.7,1.3,3.9c-0.2-0.2-0.5-0.5-0.7-0.7h-0.2c0.4,1.5,1.3,2.8,1.9,4.1c1.2,2.8,2.1,5.6,3.7,8c0.7,1,3.5,3.4,3.5,3.9
			c-0.1,0.4,0,0.4-0.2,0.6c-0.4,0.2-0.4,0-0.7-0.4h-0.2c0.5,1.9,1.6,3.2,2.4,4.7c1.1,1.8,1.8,3.5,3,5.2c1.5,2.1,3.5,4,5,6.2
			c0.9,1.3,1.8,2.6,2.6,3.9c0.6,1,0.7,2.2,1.5,3v0.4c-0.3-0.1-0.2,0-0.4-0.2h-0.6c0.5,0.9,0.9,0.9,1.7,1.5c0.8,0.6,1.2,1.6,1.9,2.2
			v0.2h-0.7c0.1,0.4,4.2,4.3,4.7,4.7v0.4c-0.4-0.2-0.8-0.5-1.1-0.7h-0.4c2,6,10.4,9.4,14,14.2c0.4,0.6,1.2,1.2,1.5,1.7
			c0.6,1.1,0.5,2.2,1.1,3.2c1.2,2,2.8,3.6,4.1,5.6c0.8,1.3,2.7,2.3,3.9,3.2c2.4,1.8,4.8,4,7.5,5.6c2.4,1.5,5.1,2.2,7.5,3.7
			c4.2,2.8,7.5,6.5,11.8,9.3c3.7,2.5,7.6,4.8,11.4,7.1c1.8,1.1,4.1,1.7,5.6,3.2h0.2c-0.1-0.4-0.2-0.4-0.4-0.7
			c0.2-0.1,0.4-0.2,0.6-0.4c1.2,0,5.8,1.9,6.5,2.4c0.1,0.4,0.2,0.7,0.4,1.1c0.7,0.6,1.4,1.2,2.1,1.9c1.7,1.1,4.3,1.2,6,2.4
			c0.9-0.1,1-0.5,1.3-1.1c3.5,0.4,7.8,3.2,11.2,4.3c2,0.7,4,0.5,6.2,1.1c1.5,0.4,3.4,1.1,4.9,1.5c1.6,0.4,3.2,0.2,4.7,0.9
			c0.6,0.3,1.3,1.2,1.9,1.5c1.7,0.7,5.4-0.5,6.9,0.4c0.6,0.4,0.3,0.4,0.2,0.9c1.5,0.6,3.2,0.5,4.9,0.9c3.6,0.9,7.6,1.6,12.1,1.5v0.2
			c-0.5,0.1-0.8,0.3-1.1,0.6h-0.2v0.2c4,0,4.8-2.7,8.8-1.9c2.8,0.6,6.2,0.5,9.1,1.1h3.5c1.1,0.2,3,0.2,4.1,0c2.7-0.6,6.2,0.2,8-1.1
			h0.4v0.2c-0.5,0.3-0.6,0.5-1.3,0.6c0.7,0.6,2.6,0.4,3.5,0.2h3.4c2-0.4,4-0.7,5.6-1.5c0.1-0.3,0.1-0.3,0.2-0.7
			c2.5,0.1,8.9-1.2,10.6-2.4c1,0.1,0.6,0.1,0.6,0.9c0.9-0.3,1.3-1.2,2.2-1.5c1.8-0.4,3.6-0.7,5.4-1.1c5.3-1.6,10.8-2.6,15.9-4.7
			c2.9-1.2,6-2.1,9-3.4c1.1-0.5,2.4-1.4,3.5-1.7c0.7,0.2,1.7,0.5,2.6,0.6l0.2,0.2c-0.1,0.7-0.3,1.1-0.7,1.5v0.4
			c2.3-1.5,4.1-3.8,6.3-5.4c1.3-0.9,3.6-1.7,4.7-2.6c0.8,0.1,0.5-0.1,0.6,0.6c1.8-0.8,3.5-2,5.4-2.6c0.6-0.1,1.2-0.1,1.9-0.2
			c1.6-0.9,3.1-1.9,4.7-2.8c0.1-0.5-0.1-1.2,0.4-1.7c-0.1-0.7,0-0.6-0.7-0.7v-0.2c1.7-0.6,2.9-2.2,4.5-2.8c0.9-0.4,2.2-0.1,3-0.6
			c2.8,0,3.4-2,5-3.2c3.7-2.7,6.6-5.4,9.3-9.1c0.8-1,2.2-1.5,3-2.6h0.2c-0.3,0.7-0.9,1.4-1.5,1.9v0.6c1.9-1.9,3.7-3.7,5.6-5.6
			c1-1.3,1.8-2.7,3.2-3.5c0.2,0,0.1-0.1,0.2,0.2c0.8-0.3,1.4-0.8,1.9-1.5c0.2,0.4,0.1,0.1,0,0.6c2-0.6,3.9-2.6,5-4.1
			c1.3-1.7,2.9-3.2,4.1-5c1.4-2.3,2.4-4.7,3.9-6.9c1.1-1.6,2.8-3.1,3.9-4.7c1.4-1.9,2.6-4.7,5-5.6v-0.4c-0.4,0.2-0.7,0.3-0.9,0.7
			h-0.2c0.9-1.1,1.9-2.1,2.8-3.2c1.7-2.5,3-5.1,4.7-7.6c1.7-2.6,3.7-5.4,5-8.4c2.5-5.8,5.1-11.4,8.2-16.6c0.7-1.1,0.8-2.3,1.5-3.4
			c0.6-0.9,1.4-2.1,1.9-3.2c0.3-0.6,0.2-1.2,0.6-1.7c0-1.5-0.2-3.7,0.2-4.9c0.5-0.1,1-0.1,1.5-0.2c-0.1-2.2-0.1-4.4-0.2-6.5
			c0.9-3.4,2.8-6,4.3-8.8c0.6-1.2,0.7-3.1,1.5-4.3v-4.3c-0.5,0.1-0.6,0.2-0.9,0.6h-0.2c0.1-1.8,0.7-7.7,1.9-8.2
			c-0.2-0.6-0.7-1.1-0.4-1.7l0.2-0.6h0.7c0-3.6-1-7.1,0.2-9.7c0.4-0.1,1.4-0.2,1.7-0.4C388.5,200.9,386,192.5,384.8,190.6z
			 M66.7,56.1l0.4-0.6C67.6,55.6,66.8,56.1,66.7,56.1z M290.8,352.7h-0.4v-0.2c0.5-0.2,0.8-0.4,1.1-0.7c0.3,0.1,0.2,0,0.4,0.2
			C291.6,352.2,291.1,352.4,290.8,352.7z M358,97.9c0.4,0.2,0.8,0.4,1.1,0.7C358.5,98.4,358.3,98.3,358,97.9z"/>
	</g>
</g>
</svg>
