<?xml version="1.0" encoding="utf-8"?>
<!-- Generator: Adobe Illustrator 19.2.1, SVG Export Plug-In . SVG Version: 6.00 Build 0)  -->
<!DOCTYPE svg PUBLIC "-//W3C//DTD SVG 1.1//EN" "http://www.w3.org/Graphics/SVG/1.1/DTD/svg11.dtd">
<svg version="1.1" id="Layer_1" xmlns="http://www.w3.org/2000/svg" xmlns:xlink="http://www.w3.org/1999/xlink" x="0px" y="0px"
	 viewBox="0 0 450 8" style="enable-background:new 0 0 450 8;" xml:space="preserve">
<style type="text/css">
	.st0{fill-rule:evenodd;clip-rule:evenodd;}
	.st1{fill:none;}
	.st2{fill:#222222;}
</style>
<g>
	<path class="st0" d="M3.7,3.8c147.8,0,295.7,0,443.6,0c0,0.3,0,0.5,0,0.8c-147.6,0-295.3,0-443,0C4,4.4,3.8,4.2,3.7,3.8z"/>
	<g>
		<path class="st1" d="M3.7,3.8c147.8,0,295.7,0,443.6,0c0,0.3,0,0.5,0,0.8c-147.6,0-295.3,0-443,0C4,4.4,3.8,4.2,3.7,3.8z"/>
		<g>
			<g>
				<g>
					<path class="st2" d="M3.9,3.8c0-0.2-0.1-0.3-0.1-0.1c0,0.1,0,0.2,0.1,0.4c0,0.2,0.3,0.4,0.5,0.5l0.9-0.1c0,0-0.1,0-0.3,0
						c-0.1,0-0.2,0-0.3,0c-0.1,0-0.3,0-0.3,0C4.2,4.4,4,4.2,3.9,4.1C3.9,3.9,3.9,3.8,3.9,3.8z"/>
					<path class="st2" d="M12,4.6c1.5,0,3.3-0.1,2.3-0.1c-1.5,0-1.8,0.1-3.5,0.1c-1.3,0-2.3,0-2,0c-0.5,0-2,0-2.7,0
						C7.7,4.6,9.8,4.6,12,4.6C12.5,4.6,12.1,4.6,12,4.6z"/>
					<path class="st2" d="M137.9,4.7l-0.8,0C137.3,4.7,137.6,4.7,137.9,4.7z"/>
					<path class="st2" d="M216,4.7c-0.6,0-0.8,0-0.9,0C215.7,4.8,216.1,4.8,216,4.7z"/>
					<path class="st2" d="M229.3,4.8c-0.3,0-0.5,0-0.8,0C228.8,4.8,229.1,4.8,229.3,4.8z"/>
					<path class="st2" d="M137.9,4.7l2.1,0C140.2,4.7,139,4.7,137.9,4.7z"/>
					<path class="st2" d="M29.3,4.5c-0.4,0-0.8,0-1.1,0C28.5,4.5,28.9,4.5,29.3,4.5C29.3,4.5,29.3,4.5,29.3,4.5z"/>
					<path class="st2" d="M103.5,4.8l-0.6,0c-0.2,0-0.4,0-0.5,0L103.5,4.8z"/>
					<path class="st2" d="M77.1,4.8c0.6,0,0.8-0.1,1-0.1c-0.3,0-0.8,0-1.3,0C76.8,4.7,76.9,4.8,77.1,4.8z"/>
					<path class="st2" d="M35.2,4.7l-0.7,0C34.7,4.7,35,4.7,35.2,4.7z"/>
					<path class="st2" d="M122.4,4.8c0,0,0.1,0,0.2,0C122.7,4.8,122.6,4.8,122.4,4.8z"/>
					<path class="st2" d="M34.3,4.1C34.4,4.1,34.3,4.1,34.3,4.1C34.2,4.1,34.1,4.1,34.3,4.1z"/>
					<path class="st2" d="M3.7,3.8l0.4,0c0,0,0.1,0,0.1,0L3.7,3.8z"/>
					<path class="st2" d="M253.7,4.9c0,0-0.1,0-0.1,0C253,4.9,253.3,4.9,253.7,4.9z"/>
					<path class="st2" d="M417.8,3.6c2.5,0.1-4.1,0.1-0.3,0.1C417.1,3.7,420.9,3.6,417.8,3.6z"/>
					<path class="st2" d="M30,4.5c0.4,0,0.7,0,1.1,0C30.6,4.5,30.3,4.5,30,4.5z"/>
					<path class="st2" d="M417.5,3.7L417.5,3.7l0.4,0C417.7,3.7,417.6,3.7,417.5,3.7z"/>
					<path class="st2" d="M309.9,4.9c-0.1,0-0.3,0-0.6,0C309.4,4.8,309.5,4.8,309.9,4.9z"/>
					<path class="st2" d="M268,4.8l1,0C268.7,4.8,268.3,4.8,268,4.8z"/>
					<path class="st2" d="M331.6,4.8c0.6,0,0.8,0,1.5,0c-0.1,0-0.1,0-0.2,0C332.7,4.8,332.3,4.8,331.6,4.8z"/>
					<path class="st2" d="M354.3,4.8c-0.1,0-0.3,0-0.4,0c-0.2,0-0.5,0-0.7,0L354.3,4.8z"/>
					<path class="st2" d="M103.1,4c-0.5,0-0.8,0-1-0.1C102.4,4,99.1,4.1,103.1,4z"/>
					<path class="st2" d="M29.3,4.5c0.1,0,0.3,0,0.7,0C29.7,4.5,29.5,4.5,29.3,4.5C29.2,4.5,29.2,4.5,29.3,4.5z"/>
					<path class="st2" d="M332.6,4.3l3.6,0C335.2,4.3,333.8,4.3,332.6,4.3z"/>
					<path class="st2" d="M265.4,4l-0.8,0C264.9,4,265.2,4,265.4,4z"/>
					<path class="st2" d="M346.8,4.3c0.6,0,1.3,0,2,0c0.1,0,0.3,0,0.4,0L346.8,4.3z"/>
					<path class="st2" d="M102,4C102.1,4,102.1,4,102,4C102.1,4,102.1,4,102,4z"/>
					<path class="st2" d="M78.4,4.1c3.4,0,1.6-0.1,2.3-0.1c4.1,0,1.9,0.1,3.3,0.1c2.5,0,4.5-0.1,6.4-0.1c0.1,0,0.5,0,0.1,0
						c2.7-0.1,8,0,11.2-0.1c0.2,0,0.3,0,0.4,0c-0.5,0-0.6-0.1-0.5-0.1c1.5,0,2.8,0,3.4,0c-0.9,0-1,0-1.5,0l1.6,0
						c1.4,0.1-2.2,0-2.2,0.1c3.1,0,6.8-0.1,9.2-0.1c0.5,0.1-5.6,0-2.4,0.1L106,4c2.8,0.1-2.3,0,0.4,0.1c4.9,0,5.5,0,10.4,0
						c1.1,0-0.4-0.1,0.7-0.1c6.9-0.1,5.5,0.2,10.6,0.1c1.3,0,1.8-0.1,5.5-0.1l-1.2,0.1c4.7,0,2.7-0.1,7.7-0.1c-0.9,0-3.7,0-3,0
						c3.2,0.1,2.3,0,4.7,0l0.5,0.1c5,0,10.6,0,16.2-0.1c-0.3,0-1.3,0,0,0.1c7,0,15,0,21.8,0l2.6-0.1c0.6,0,1.1,0,0.5,0
						c2.6,0,0.1,0,1.4-0.1c1.5,0,2,0,1,0.1c4.7,0,13.3-0.1,18.2,0l-1,0c3.8,0,4.3-0.1,7.9-0.1l-0.7,0c8.3,0,17.5,0,23.9,0.1
						c1.2-0.1,8.2,0,8.8-0.1C247.7,4,246.3,4,253,4.1c1.8,0,2.7-0.1,4.9-0.1l0.1,0.1l3-0.1l1.6,0.1l2.1,0c-0.8,0-1.8,0-1.6,0
						c1.6,0,3.6,0,5.2,0c0.8,0,1.5,0,2,0c0.5,0,0.8,0,0.8,0l7.7-0.1c-0.2,0-1.5,0-2.5,0c4.1-0.1,0.7,0.1,4.5,0c-0.5,0,0.3,0,0.4,0
						c1.9,0,6.1,0,9.3,0l-0.6,0c5.7,0,12,0,18.4,0c-2.3,0-1.8-0.1,0.1-0.1l0.7,0.1c1.2,0-2,0,0.5-0.1c2.4,0,1.6,0.1,0.2,0.1l2.9,0
						c0.2,0-0.5,0-0.7,0.1c1.2,0,5,0.1,6.7,0l0.2,0c6.4,0,9.3,0,14.5,0c0.1-0.1,2.1,0,3.7-0.1c3.8,0,8.1,0,12.7,0.1
						c3.2,0,0.9,0,2.4-0.1c0.2,0.1,4.8,0,2.4,0.1c5.5,0,7,0,14-0.1c-0.8,0-1.6,0-1.2,0c1.3,0,2.9,0,2.7,0l-0.3,0
						c7.8-0.1,18.1,0.1,24.3,0l-0.3,0L400,4c3,0-1.8,0,0.4,0.1c7-0.1,11,0,16.8,0c4.4,0.2,15.8,0,21.8,0.1l-0.3,0c1.6,0,1.9,0,3,0
						c-0.2,0-1.7,0-0.7-0.1c2,0,4,0,6.1,0c0,0.1,0,0.2,0,0.4c-10.9,0-22.3-0.1-33.3-0.1c-4.9,0-2.8,0.2-9,0.1l1.8-0.1
						c-10,0-20.3,0-30.1,0.1c0.6,0,0.6,0,1.5,0c-1,0-2.9,0-4.6,0c-0.8,0-1.6,0-2.1,0c-0.3,0-0.5,0-0.7,0c-0.2,0-0.2,0-0.3,0
						c-1.5,0-0.4,0-1.3-0.1c-2.1,0-5.2,0.1-6.3,0c-0.2,0,0.6,0,1,0c-1.3,0-6.3,0-5,0c-3.7,0-7,0-9.9,0c-1.9,0.1-6.3,0-6.9,0.1
						c0.3-0.1-6.4-0.1-8.7,0c0.8,0-2,0-1.1-0.1c-2.6,0-5.1,0-4.6,0.1c-4.9-0.1-9.8,0.1-12.5-0.1c-7.8,0-15.1,0.1-22.1,0.1
						c0.3-0.1,7.8,0,7.5-0.1c-6.7,0-10.5,0.1-17.2,0.1c-1.7,0,1,0,1.6-0.1c-6.7,0-12.9,0-18.9,0c0,0,0.2,0,0.4,0c0.2,0,0.6,0,0.9,0
						c-1.2,0-2.7,0-2.6,0l1.1,0c1.9,0.1-4.7,0.1-4.9,0.2c2-0.1-5.9,0-2.7-0.2c-0.8,0-1.7,0-1.6,0.1c-1.1,0-1.5,0-0.3-0.1
						c-4.2,0-2.7,0.1-6.5,0.1c0,0,0.8,0,1.2-0.1c-1.9,0-3.9,0.1-7.1,0.1c0.2,0-0.2,0,0.8,0c-5.5,0-9.4,0.1-15.5,0.1
						c1.8-0.1-2.1,0-2.4-0.1l-3.3,0l1.3,0c-2.9,0-5.4,0.1-7.8,0l2.1,0l-5.3,0l3,0c-2.9,0,0.3,0.1-3.5,0.1c0.8,0-2.9,0-4.3,0l0,0
						c-1.4,0-2.9,0-5,0c-0.5,0,0.4-0.1,0.1-0.1c-1.4,0.1-6.7,0-8.4,0.1c0.6,0,0.6-0.1,0.4-0.1l-1.2,0.1c-1.3,0-1.5,0-1.3-0.1
						c-4,0,1.3,0.1-3.5,0.1c0.4,0,0.2,0,1,0c-4.7,0-9.1,0-13.5,0c-1.3-0.1,3.8,0,2.3-0.1c-6.3,0-13,0-19.1,0.1l1.1,0
						c-0.8,0.1-4.5-0.1-7.6,0c0.8,0,1-0.1,0.8,0c-4.2,0-8.5,0-14.8,0.1l0.8,0c-2.5,0-6.5,0-9.1,0c-0.8,0-2.3,0-1.4,0.1
						c-8.2-0.2-15.6,0.1-22.8,0c0.9,0,2.1,0,1.4,0l-6.2,0c0.5,0,0.8,0,2.1,0.1c-0.8,0-2.5,0-4.1,0c2.8,0,0-0.1-1.2-0.1
						c0.2,0-0.2,0-0.1,0c-3.2-0.1-0.5,0.1-4.9,0l0.2,0c-1.6,0-3.2,0-4.9,0c-0.7-0.1,1.8,0,1.9-0.1c-2.5,0-4.9,0.1-7.2,0
						c1.1,0,2.6,0,3.6,0c-2.5-0.1-2.7,0-4.6-0.1l0.2,0l-4.2,0l1.1,0c-3.1,0.1-6.4,0-10.6,0.1c4.1-0.1,0.7,0,1-0.1
						c-1.1,0-2.7,0-2.2-0.1c-2,0-3.3,0-6.1,0c-0.1,0-2.1,0-1.7-0.1c-2.6,0,0.6,0,0.4,0.1c-4,0.1-9.4-0.1-15.1,0
						c-4.9,0.1-5.9,0.1-10.4,0.1c-1.5,0,1.3-0.1,1.3-0.1c-2.5,0-4.4,0-6.7,0c0.5,0,0,0-0.7-0.1c-1.9,0-1.3,0.1-3.8,0
						c0.4,0,1-0.1,1.9-0.1c-2.2,0-4.4,0-6.7,0.1c-0.6,0,1.4-0.1,2.2-0.1c-2.6,0-6.7,0-7.5,0.1l1.7,0c-0.9,0-0.5,0,0.2-0.1
						c2.2,0,3.2,0,3.3,0l-1.6,0c1.7,0.1,6.6,0,9.9,0l-1.4,0.1l3.4-0.1c0.7,0,1.2,0.1-0.4,0.1c2.4,0,2.1,0,4.1,0c0.2,0,0.1,0-0.1,0
						l2.3,0c-0.5,0,0.4,0.1-1,0c4.2,0,6.7-0.1,8.3,0l-0.3,0c5.8,0,0.6-0.1,4.9-0.1l2.9,0.2l0.6-0.1c0.6,0,1.8,0,1.6,0
						c2.2,0-0.4,0,0.9-0.1c2.9,0.1,7.9,0,8.5,0.1c1,0-2.7,0,0.3-0.1c0.9,0.1,3.5,0,6.1,0c-0.8,0.1-3.3,0-0.7,0.1
						c1.6-0.1,5.1,0,7.3,0c0.1,0,1.2,0,2.9,0c1.6,0,3.7,0,5.6,0c-0.2,0,7,0,10.4,0.1l-0.1,0c0.7-0.1,4.2-0.1,6.8-0.1
						c-0.1,0-0.6,0.1-2,0.1l2.4,0c0.6,0,1.3,0,2.9,0l-0.6,0.1c3.2,0,6.5-0.1,10.7,0c0.2-0.1-3.3-0.1,1.1-0.2c0.2,0,0.3,0.1-0.8,0.1
						c0.4,0,1.3,0,2.1,0l-1.8,0c1.9,0,1,0,2.5,0c0,0,1.1,0,0.9,0.1c-0.4,0-1.3,0-1.9,0c1.7,0,3.8,0,4.5,0.1c-0.1,0,0-0.1,1.3-0.1
						c3.2,0,1.1,0,3,0.1c0.8,0,2.8,0,2.9-0.1c0.9,0,1.1,0,1.5,0c1.7,0,7.8,0,5.9-0.1l-0.4,0c0.1,0,0.2,0,0.3,0c0,0,0,0,0,0h0
						c5.5-0.1,11.4,0,16.8,0l0,0c3.2,0,7.2,0,9.5-0.1c1,0,2.3,0,1.9,0.1c2.5,0,2.8,0,6.3,0c-2.5,0,0.9,0-2.6,0c3.2,0,4,0,7.4,0
						c-1.2,0.1,2.4,0.1,4,0l-2.3,0c1.7,0,3.2,0,4.8,0l-0.8,0.1c6.6,0.1,11.9-0.1,16.9,0c1.7,0-3.6,0-2-0.1c3,0,6.2,0.1,7.2,0.1
						c4.2,0,3.9-0.1,8.2-0.1c-0.6,0-1.1-0.1,2.2-0.1c3,0,3.7,0.1,1.8,0.1c-0.7,0-1.1,0-1,0c-1,0-2.3,0-1.1,0l0.4,0
						c1.5,0,5.7,0,4.7,0.1c2.3,0,1,0-0.7-0.1c3.9,0,6.1,0,10.1,0c-0.6,0-1.2,0-0.6,0c5.9,0,2.6,0,6.6-0.1c2.3,0-0.8,0.1,3.2,0.1
						c2.5,0,0.5,0.1-0.5,0.1c3.7,0,6.8,0,8.9,0l-1.9,0c1.2,0,2.1,0,3.1,0l-1.1,0c0.6,0,1.1,0,1.5,0c0.4,0,0.6,0,0.6,0
						c1.2,0-0.9-0.1,1.4-0.1c1.5,0,4.6,0,5.1,0c-4.7,0,0.5,0.1-3.5,0.1c0.8,0,1.7,0,2.9,0c0.2,0-0.2,0-0.5,0
						c4.5,0.1,2.1-0.1,6.8-0.1c-0.6,0,1.1,0.1,1.9,0.1c-1.9,0-0.9-0.1,0.8-0.1c3,0,3.3,0,4.9,0l-1.8,0c0.6,0,2.1,0,4.2,0
						c0.2,0-1.9,0-1.2,0c2.3-0.1,5.3,0.1,8.5,0c1.5,0,0.1,0.1,1.5,0.1c3.6,0,3.9,0,7.8,0c-1.1,0-1.3,0,1.4-0.1l-6.3,0l4-0.1
						c-1.9,0-4,0-5.2,0c1.9,0,1.7,0,0.8-0.1c2.6,0.1,5.2,0,8.2,0L290,4.8c4.5,0.1,8-0.1,13.9,0l-1.9,0c0.8,0,3.6,0,5.5,0
						c-0.2,0,1,0.1,1.8,0.1c-0.1,0,4.3,0,4.8-0.1l2.6,0.1c4.7,0,5.4-0.1,10-0.1c-1.4,0,0.7,0.1-2.4,0.1c0.8,0,1.5,0,2,0
						c0.5,0,0.9,0,0.9,0c0.9,0,4.2-0.1,5.6,0c0.6,0,0.9-0.1,2.6-0.1c0.2,0,0,0,0,0s0.7,0,1.2,0c0.5,0,0.8,0,0,0
						c4.7,0.1,13.1,0,17.2,0.1c3.3,0,7.3,0,10.3,0c-0.2,0,0,0-0.6,0c4.2,0,2.6-0.1,7.3-0.1c2.4,0.1-2.5,0-1,0.1
						c0.7,0.1,5.7,0,8.9,0.1l-0.8,0c2.4,0,5.9,0,9.9,0c0,0-0.2,0,0,0c2.7-0.1,7.9-0.1,11.7-0.1c-1.2,0.1-1.7,0-1,0.1
						c1.7,0-0.5-0.1,2.9-0.1c1.1,0,3.6,0.1,3.9,0.1l-3.2,0c1.7,0.1,4.2,0,5.9,0l-0.2,0c4.9,0,5-0.1,10.3-0.1l-0.5,0
						c2.9-0.1,2.4,0,5.3,0l0.9,0.1c1.9,0,6.7-0.1,10.2-0.1c-1.9,0.1-6,0.1-8.5,0.1c1.9,0,6.5,0,7.5,0c-0.8,0-1.7,0-2.5,0
						c2.3-0.1,5.4-0.1,9.2-0.1c-0.2,0,0.7,0.1,2.2,0.1c1.5,0,3.6,0,5.5,0c0-0.4,0-0.8,0-1.1c-1,0-1.9,0-2.6,0c-0.7,0-1.3,0-1.8,0
						c-6.7,0.1-13.3,0-21.1,0c2.8,0.1-2.3,0-1.8,0.1c-1.8,0-2.5,0-2.7,0L412,3.6c-1.3,0,1.7,0,1.6-0.1c-4,0-1.7-0.1-4.3-0.1
						c0.5,0-1.4,0.1-3.7,0l3.2,0.1c-5.6,0.1-4.8-0.1-10.4,0l1.8,0c-2.9,0-10.6,0-13.4,0.1c-0.5,0-1.2,0,0.1-0.1
						c-6.9,0-15.3,0.1-20.7,0l0.5,0c-1.3,0-2.2,0.1-3.8,0c0.1,0,0.5,0-0.1,0c-0.7,0-3.4,0.1-5.1,0l1.5,0c-6.7,0-10.3,0.1-15.9,0.1
						c0,0-0.3,0-0.9-0.1c-0.5,0-1.3,0-2.1,0c-1.6,0-3.6,0-4.9,0l0.1,0c-7.8,0-13.3,0.1-20.5,0.1c-4.5-0.1-15.2,0-22.4-0.1
						c1.1,0-0.2,0.1-1.5,0.1c-1.7,0-4.7,0.1-4.4,0l0.6,0c-1.3-0.1-4.8-0.1-7.5-0.1l-0.4,0.1c-7.1-0.2-18.6,0.1-22.5-0.1
						c-1.7,0-3.8,0-5.5,0.1l0.1-0.1c-4.8,0-7.1,0-13,0l1.2,0c-3.3,0-4.2,0.2-7.2,0.2l-0.9-0.1c-5.8,0-11.6-0.1-17.3,0
						c0.1,0,0.3,0,1.2,0c-2.7,0-10.5-0.1-9.5,0.1c0,0-0.4,0-1,0c-0.6,0-1.5,0-2.4,0c-1.9,0-4.1,0-5.7,0.1l0.5-0.1
						c-2.6,0.1-2.7,0.1-6.4,0.1c-0.9,0-0.8,0,0.4,0c-2.9,0-2.3,0.1-5.8,0l1.3,0c-3,0-2.8,0-4.4,0.1c-1.9,0-5.7,0-6.1-0.1
						c-0.4,0-2,0.1-3.8,0.1c-0.2,0,0.4,0,0.7,0c-5,0-7.4,0.1-10.9,0c-0.1,0-0.3,0-0.6,0c4,0,6.6,0,6.9,0c0-0.1-3.2-0.1-0.7-0.1
						c-2.6,0-7,0.1-10.1,0.1c-0.2,0-0.3,0-0.4,0l0.3,0c-0.7,0-1.4,0-2,0c-1,0-1.6,0-2.6,0c-0.4,0-3.7,0-5.3,0c0.1,0.1-2,0,0,0.1
						c-0.3,0,0.3,0,1.4,0c0.2,0,0.5,0,0.7,0c0,0-0.1,0-0.1,0c1.1,0,2.4,0,4,0c-1.3,0-2.6,0.1-4.4,0c-0.8,0-1.7,0.1-2.2,0.1
						c-2.2-0.1-6.4-0.1-7-0.2c-4.9,0-11.5,0-14.6,0.1c-1.4,0-1.6,0-2.1,0c0.8,0,1.7,0,2.2,0c-2.8,0-8.2,0-8.9,0.1
						c-3.5,0,2-0.1-2.8-0.1l0.6,0c-9.5-0.1-15.4,0.2-25.9,0c0.7,0,1.1,0,1.2,0c-12-0.1-24.6,0.1-36.5,0c-3.4,0-3.7,0-5.8,0.1
						l-0.7-0.1l-3.5,0.1c-5,0.1-8.6-0.1-14.9-0.1l0.8,0c-2.3,0-7.1,0-6.8,0c-0.2,0-0.7,0-1.6,0l-0.1,0l-5.5,0.1
						c-4.3,0,0.7-0.1-5.6-0.1c-2.3,0-6.6,0.1-5.8,0.1c0.9,0,2.4,0,2.5,0.1l-2.1,0C3.8,3.9,2.1,4,7.4,4L11,4l1.2,0L9.1,4
						c1.7,0,2.8,0,4.1,0c0.3,0,0.8,0,1.5,0L18.3,4c0.4,0-1.6,0.1,0.8,0.1C20.8,4,17.5,4,20.3,4C22,4,21.5,4,23.6,4c0.3,0-0.1,0-1,0
						c1.8,0,4.8,0,5.8-0.1c1.8,0.1,6.2,0,6,0.1C34.9,4,37.5,4,39.2,4c-3.1,0.1,6.3,0,5.5,0.1c2.3-0.1,8.2,0,12.2-0.1
						c-0.2,0-0.7,0-1,0c2.3,0,2.9,0,4.4,0.1C60.5,4,64,4,65.9,3.9C68.7,4,64.2,4,65.1,4.1C65,4,69.9,4,69,4c2.1,0,1.8,0,2.9,0.1
						c0.4-0.1,2,0,3.7-0.1c3.1,0,0.8,0.1,4.2,0.1C81.4,4.1,78.4,4.1,78.4,4.1z M158.4,4L158.4,4c-0.7,0-1.3,0-1.7,0
						C157.1,4,157.5,4,158.4,4z M165.1,4c-0.8,0-1.8,0-2.9,0c-0.2,0,0,0,0.7,0C162.5,3.9,164.1,3.9,165.1,4z M150.9,3.6
						c1.1,0,1.4,0,1.6,0c-0.5,0-1.1,0-1.9,0c0,0-0.1,0-0.1,0C150.6,3.6,150.7,3.6,150.9,3.6z"/>
					<path class="st2" d="M149,3.6c-0.2,0-0.2,0-0.4,0c0.2,0,0.4,0,0.6,0c0.1,0,0.3,0,0.4,0C149.3,3.6,149.1,3.6,149,3.6z"/>
					<path class="st2" d="M137,4.7l0.1,0c-0.1,0-0.2,0-0.3,0C136.9,4.7,136.9,4.7,137,4.7z"/>
					<polygon class="st2" points="257.9,4.1 257.9,4.1 257.3,4.1 					"/>
					<path class="st2" d="M100,4.5c-0.1,0-0.2,0-0.5,0C99.5,4.5,99.7,4.5,100,4.5z"/>
					<path class="st2" d="M84,4.5l-2.3,0C82.7,4.5,83.4,4.5,84,4.5z"/>
					<path class="st2" d="M71.7,4.5c-0.2,0-0.2,0-0.2,0l0,0L71.7,4.5z"/>
					<path class="st2" d="M267.2,4.4c0.2,0,0.3,0,0.5,0C268.8,4.4,268,4.4,267.2,4.4z"/>
					<path class="st2" d="M209,4.5c0.6,0,1.2,0,1.9,0C209.8,4.5,209,4.5,209,4.5z"/>
					<path class="st2" d="M332.2,4.3C332.2,4.3,332.2,4.3,332.2,4.3c0.1,0,0.3,0,0.4,0L332.2,4.3z"/>
					<path class="st2" d="M213.6,4.5c-1,0-1.9,0-2.7,0C211.7,4.5,212.7,4.5,213.6,4.5z"/>
					<path class="st2" d="M18.4,4.4l-0.6,0c0,0,0,0-0.1,0L18.4,4.4z"/>
					<path class="st2" d="M17.7,4.5l-0.7,0C17.3,4.5,17.6,4.5,17.7,4.5z"/>
					<path class="st2" d="M15.7,4.5l1.4,0C16.6,4.5,16,4.5,15.7,4.5z"/>
					<path class="st2" d="M34.6,4.5l0.2,0C34.7,4.5,34.7,4.5,34.6,4.5z"/>
					<path class="st2" d="M39.6,4.5c-1.2,0-3,0-4.6,0l-0.2,0C35.6,4.4,38.5,4.5,39.6,4.5z"/>
					<path class="st2" d="M60.2,4.7l-4.1,0c0.7,0,1.7,0.1-0.2,0.1C61.1,4.8,54.8,4.7,60.2,4.7z"/>
					<path class="st2" d="M73.1,4.7C70.9,4.8,73.1,4.8,73.1,4.7C74.4,4.8,74.8,4.8,73.1,4.7z"/>
					<path class="st2" d="M166,4.7l-0.2,0.1C167.5,4.8,165.8,4.8,166,4.7z"/>
					<polygon class="st2" points="183.7,4.5 182.1,4.5 181.3,4.5 					"/>
					<polygon class="st2" points="194.2,4.8 193.5,4.9 196.3,4.8 					"/>
					<path class="st2" d="M350.2,4.8l-0.5-0.1C348.6,4.8,348.3,4.8,350.2,4.8z"/>
					<path class="st2" d="M417.6,4.8c0.7,0,2.6,0.1,3.8,0C419.9,4.8,418.4,4.8,417.6,4.8z"/>
					<polygon class="st2" points="275.8,3.6 277.1,3.5 274.6,3.6 					"/>
				</g>
			</g>
		</g>
	</g>
</g>
</svg>
