<?xml version="1.0" encoding="utf-8"?>
<!-- Generator: Adobe Illustrator 19.2.1, SVG Export Plug-In . SVG Version: 6.00 Build 0)  -->
<!DOCTYPE svg PUBLIC "-//W3C//DTD SVG 1.1//EN" "http://www.w3.org/Graphics/SVG/1.1/DTD/svg11.dtd">
<svg version="1.1" id="Layer_1" xmlns="http://www.w3.org/2000/svg" xmlns:xlink="http://www.w3.org/1999/xlink" x="0px" y="0px"
	 viewBox="0 0 300 300" style="enable-background:new 0 0 300 300;" xml:space="preserve">
<style type="text/css">
	.st0{fill:none;}
	.st1{fill:#FFEC00;}
	.st2{fill:#49ACDA;}
	.st3{fill:#B33385;}
	.st4{fill:#C9D127;}
</style>
<g>
	<path class="st0" d="M296.9,120.1c0-0.3,0-0.7,0-1.1L296.9,120.1z"/>
	<path class="st0" d="M297.1,16.4c0,0.8,0,1.1,0.1,1.1C297.2,16.8,297.2,16.2,297.1,16.4z"/>
	<path class="st0" d="M291.3,3c0.4,0,0.7,0,1,0C291.9,3,291.6,3,291.3,3z"/>
	<path class="st0" d="M297,119l0.1-2.7C297,116.1,297,117.6,297,119z"/>
	<path class="st0" d="M297.2,164.2l0,0.8c0,0.2,0.1,0.5,0.1,0.7L297.2,164.2z"/>
	<path class="st0" d="M297.3,198.9c0-0.8-0.3-1.1-0.4-1.4c0.1,0.4,0.2,1,0.2,1.7C297.1,199.3,297.2,199.2,297.3,198.9z"/>
	<path class="st0" d="M296.8,254l0,1C296.8,254.7,296.8,254.3,296.8,254z"/>
	<path class="st0" d="M297.3,139.4c0-0.1,0.1-0.2,0.1-0.3C297.4,139.1,297.3,139.2,297.3,139.4z"/>
	<path class="st0" d="M259.2,2.7c0.1,0,0.1,0,0.1,0C260.2,2.6,259.8,2.6,259.2,2.7z"/>
	<path class="st0" d="M3.4,43.7c0.3-3.3,0.3,5.4,0.6,0.4C3.9,44.5,3.5,39.5,3.4,43.7z"/>
	<path class="st0" d="M186.1,3c0,0-0.2-0.1-0.8-0.1C185.5,2.9,185.8,2.9,186.1,3z"/>
	<path class="st0" d="M240.4,3.2l-1.4,0C239.6,3.2,240,3.2,240.4,3.2z"/>
	<path class="st0" d="M156.2,3.2c0.2,0,0.4,0,0.6,0C156.6,3.2,156.4,3.2,156.2,3.2z"/>
	<path class="st0" d="M156.2,3.2c-0.4,0-0.7,0-1.4,0c0.1,0,0.2,0,0.3,0C155.4,3.2,155.7,3.2,156.2,3.2z"/>
	<path class="st0" d="M127.1,3.2c0.2,0,0.4,0,0.5,0.1c0.3,0,0.6,0,0.9,0L127.1,3.2z"/>
	<path class="st1" d="M297.5,38.9c-0.2-2.3-0.2,4.7-0.4,2.7c0-4,0.5-8.2,0.5-9.4c0.2-5.5-0.5-5.1-0.4-10.8c-0.1,0.7-0.4,1.4-0.5-2.9
		c0-4,0.5-4.9,0.6-2.4c0,1,0,1.4-0.1,1.4c0,1.3,0.1,3,0.2,1.4l-0.1-0.5c0.1-2,0.1-7.5,0.3-6.2c-0.1-2.8-0.2-1.5-0.2,0.4
		c0-1.6,0.1-3,0.1-4.3c0-1.8,0-3.4,0-5.3c-0.9,0-1.9,0-2.9,0c-0.7,0-1.4,0-2.2,0c0.8,0.1,1.6,0.2,0.8,0.2c-7.7-0.1-3.4,0.2-8.6,0.3
		c-3-0.2,1.1-0.4-4.2-0.3c-3.2-0.1-0.7-0.3,0.6-0.4c-4.8,0.2-9-0.2-11.7-0.2l2.5-0.1c-1.5,0.1-2.8,0.1-4,0.1l1.4,0.2
		c-1.5,0-2.7,0-2.7-0.1c-1.5,0.2,1.2,0.4-1.9,0.6c-2-0.1-6,0.1-6.7-0.2c5.6,0.1,0.5-0.2,3.4-0.3c-0.8,0-1.6,0-2.6,0
		c-0.2,0,0.2-0.1,0.6-0.1c-6-0.3-2.7,0.4-8.9,0.3c0.8-0.2-1.4-0.3-2.4-0.3c2.5,0,1.2,0.3-1.1,0.4c-4-0.1-4.3,0.1-6.4,0.1l2.4,0.1
		c-0.8,0.2-2.8,0.2-5.5,0.2c-0.2-0.1,2.5-0.1,1.5-0.2c-3.1,0.3-6.9-0.3-11.2-0.1c-2-0.1-0.2-0.3-1.9-0.4c-4.8,0.2-5.2-0.2-10.2-0.1
		c1.5,0.2,1.7,0.2-1.8,0.4l8.3-0.2l-5.3,0.3c2.5,0,5.3-0.2,6.8-0.1c-2.5,0.2-2.3,0.1-1.1,0.3c-3.4-0.4-6.8,0.2-10.7,0l0.1-0.6
		c-5.9-0.3-10.6,0.3-18.3,0.2l2.5,0.1c-1,0.2-4.8,0-7.3,0.1c0.2-0.2-1.3-0.3-2.4-0.4c0.1,0.1-5.7,0-6.4,0.4l-3.4-0.3
		c-6.2-0.1-7.1,0.6-13.1,0.5c1.8-0.2-0.9-0.4,3.1-0.5c-2,0-3.8,0-3.8,0.1c-1.2-0.1-5.5,0.3-7.4,0.1c-0.8,0.1-1.1,0.3-3.4,0.3
		c-0.2,0-0.1-0.1-0.1-0.1c-0.5,0.1-3.3,0.1-1.5,0.3c-6.2-0.6-17.2,0-22.6-0.5c-4.4,0-9.6,0.1-13.6,0.1c0.3-0.1,0-0.1,0.8-0.1
		c-5.5-0.2-3.4,0.6-9.6,0.4c-3.2-0.3,3.3-0.2,1.3-0.3c-0.9-0.6-7.5,0.1-11.7-0.3l1,0c-3.2-0.2-7.8,0.2-13,0.2c0,0,0.3-0.1,0-0.1
		c-3.6,0.3-10.3,0.4-15.4,0.5c1.6-0.3,2.3-0.1,1.3-0.4c-2.3,0,0.7,0.4-3.8,0.5c-1.5-0.1-4.7-0.3-5.1-0.5l4.2,0c-2.2-0.4-5.5,0-7.7,0
		l0.3-0.2C50.1,3.1,50,3.5,43,3.5l0.7,0.1c-3.8,0.4-3.2-0.2-7,0.1l-1.2-0.4C33,3.4,26.7,3.7,22.2,3.7c2.6-0.3,7.9-0.4,11.1-0.6
		c-2.5,0-8.5,0-9.8,0.2c1,0,2.3-0.1,3.3-0.1c-3.1,0.3-7.1,0.5-12.1,0.5c0.3-0.3-1-0.4-3-0.4c-1,0-2.2,0-3.4,0c-1.5,0-3.1,0-4.6,0
		c0,0.9,0,1.9,0,2.8c0,0.6,0,1.2-0.1,1.8c0,1.1-0.1,2-0.2,2.7c0.3,8.8-0.1,17.5-0.1,27.7c0.6-3.6,0,3,0.6,2.4c0,2.4,0,3.3,0,3.5
		l0-0.5C4,43.7,4,44,4,44h0l-0.4,7.3c-0.2,1.7-0.1-2.3-0.3-2c0,5.2-0.3,2.2-0.4,5.7c0.2-0.7,0.3,1.8,0.2,4.8l0.3-4.2
		c0.3,7.3-0.5,6.3-0.2,13.7L3,66.9c0.1,3.8,0,14,0.5,17.7c-0.1,0.7-0.2,1.6-0.3-0.1c-0.1,9,0.5,20.1,0.2,27.2l-0.1-0.7
		c0,1.7,0.3,2.9,0.1,5c-0.1-0.1-0.1-0.7-0.2,0.1c0.1,0.9,0.3,4.5,0.2,6.7l-0.2-1.9c-0.2,8.8,0.4,13.5,0.5,20.9
		c-0.4,0-0.6,6.9-0.7,10.4l-0.1-0.1c-0.1,10.3,0.4,17.4,0.5,27c-0.5,5.9-0.2,20-0.5,29.5c0.1-1.5,0.3,0.2,0.4,1.9
		c-0.1,2.2,0.3,6.2-0.1,5.8l0-0.8c-0.4,1.7-0.3,6.3-0.3,9.8l0.5,0.6c-0.8,9.3,0.3,24.5-0.4,29.6c0.1,2.3,0.1,5,0.3,7.3l-0.3-0.1
		c-0.1,6.2-0.1,9.4,0,17.1L3,278.1c0,4.4,0.8,5.5,0.8,9.5l-0.4,1.2c0,2.8,0,5.5-0.1,8.3c3,0,6,0.1,9,0.1c2.6,0,5.2,0,7.8-0.2
		c-0.1,0.1-0.3,0.2-1.6,0.2c3.5,0,13.2,0.3,12.6-0.2c0.8,0.3,8,0,11.9-0.2l-0.6,0.3c3.5-0.4,3.6-0.5,8.4-0.6c1.1,0,1,0.2-0.5,0.2
		c3.8,0.1,3-0.3,7.6-0.1l-1.7,0.2c3.9,0,3.6-0.1,5.8-0.3c2.5-0.1,7.5,0.1,8,0.3c0.5-0.2,2.7-0.4,5-0.3c0.3,0.1-0.5,0.2-1,0.2
		c6.6,0.2,9.8-0.3,14.3-0.1c0.1,0.1,0.4,0.1,0.8,0.2c-4.8,0-8.7,0-9,0c0.1,0.3,4.2,0.3,0.9,0.7c3.4-0.2,9.2-0.6,13.3-0.5
		c0.2,0,0.4,0,0.5,0.1l-0.4,0c0.9,0,1.8,0,2.6,0c1.3,0,2.1,0.1,3.4,0.1c0.5,0.2,4.8,0.1,6.9,0.1c-0.2-0.3,2.5-0.2,0.1-0.5
		c0.1,0-0.7,0-1.9,0c-0.3,0-0.7,0-0.9,0c0,0,0.1,0,0.1,0c-1.4,0-3.2,0-5.2,0c1.7-0.1,3.4-0.3,5.7-0.1c1.1-0.2,2.3-0.4,2.9-0.5
		c2.9,0.4,8.4,0.6,9.2,0.8c6.4-0.2,15.1-0.1,19.2-0.6c1.8-0.1,2.1,0.2,2.8,0.2c-1.1,0.1-2.3,0-2.9,0.1c3.7-0.1,10.8-0.1,11.7-0.4
		c4.6,0.2-2.6,0.3,3.7,0.3l-0.9,0.1c12.4,0.6,20.2-0.9,34-0.2c-1,0-1.4-0.1-1.6-0.1c15.7,0.3,32.4-0.3,47.9,0.2
		c4.4,0.1,4.9-0.1,7.6-0.3l1,0.3l4.6-0.3c6.5-0.3,11.3,0.7,19.6,0.3l-1.1-0.2c3,0,9.4-0.1,8.9,0.1c0.3,0,1-0.2,2.1-0.1l0.1,0.2
		l7.3-0.3c5.7,0.1-0.9,0.6,7.4,0.7c3.1-0.1,8.7-0.5,7.6-0.6c-1.2,0-3.2-0.1-3.3-0.3l2.7-0.1c0,0,0,0.1,0,0.1c0,0,0,0.1,0,0.1l0.1,0
		c0,0.1,0.1,0.1,0.1,0l0.5-0.1l-0.5,0c0,0,0,0,0-0.1c0,0,0,0,0,0h0v-0.3c1-0.1,1-0.3,0-0.4v-32.5l0.1,0.3l-0.1-1v-4.3
		c1,0.1,0.4,0.5,0.4,1.4c0.2-3.1,0-2.8,0.2-5.4c0-0.3,0.1-0.2,0.1,0.1l-0.1-3c0.1,0.6,0.3-0.5,0.2,1.4c0.2-5.5-0.3-8.8,0-10.9
		l-0.2,0.5c-0.1-5.7,0.3-3.3-0.7-4.1v-3.5l0.8-2.6l-0.2-0.7c0-0.8,0.1-2.3,0.2-2c-0.2-2.9-0.1,0.5-0.3-1.2
		c0.3-3.8-0.1-10.4,0.4-11.2c-0.2-1.3-0.2,3.6-0.3-0.4c0.5-1.1-0.1-4.6,0.2-8.1c0.3,1.1,0.1,4.3,0.4,0.9c-0.5-2.1,0.1-6.7,0-9.6
		c-0.4-0.1-0.2-6.3-0.3-11.2c0.1,0.3,0.2-9.1,0.3-13.7l0.1,0.1c-0.4-0.9-0.3-5.5-0.4-8.9c0.2,0.1,0.3,0.7,0.4,2.6l0-3.2
		c-0.1-0.8-0.2-1.7-0.2-3.8l0.3,0.8c0-4.2-0.6-8.6-0.4-14c-0.2-0.2,0.1,1.9-0.9,1.4v-3c1,0.1,0.4,0.4,0.4,1.2c0-0.5,0-1.8,0.1-2.8
		l0.3,2.3c0.1-2.5-0.2-1.3-0.1-3.3c0.2,0,0.2-1.5,0.3-1.2c0,0.5-0.1,1.7,0,2.5c0-2.2,0.2-5,0.3-5.9c-0.1,0.2-0.3,0-0.3-1.6
		c0-4.2,0.2-1.5,0.3-3.9c-0.1-1,0-3.7-0.3-3.8c0-1.2,0.1-1.5,0.2-2c-0.1-2.2,0-10.3-0.4-7.8l0,0.6c0-0.1,0-0.2,0-0.4
		c-0.3-7.2,0.2-15,0-22.1l0.1,0c-0.1-4.3-0.1-9.5-0.3-12.6c0-1.3,0.2-3,0.3-2.4c-0.1-3.3-0.2-3.6,0-8.3c0.2,3.3,0.2-1.1,0.1,3.4
		c0.1-4.2,0.2-5.2,0-9.8c0.3,1.5,0.3-3.2,0.2-5.2l-0.2,3c0-2.3,0-4.2,0-6.3l0.3,1.1C297.9,52.5,296.8,45.5,297.5,38.9z M103.4,297.1
		c0,0,0.1,0,0.2,0c-0.1,0.1-0.3,0.1-0.6,0.1c-1.4,0-1.9,0-2.1-0.1C101.7,297.1,102.4,297.1,103.4,297.1z M296.5,252.7
		c0,0.2,0,0.3,0,0.4v-1.8C296.5,251.7,296.5,252.2,296.5,252.7z"/>
	<path class="st0" d="M261.2,2.8c0.4,0,0.8,0,1.2,0C261.9,2.8,261.5,2.8,261.2,2.8z"/>
	<path class="st0" d="M151.7,3.4C151.7,3.4,151.7,3.4,151.7,3.4C151.7,3.4,151.7,3.4,151.7,3.4z"/>
	<path class="st0" d="M107.4,296.8C107.4,296.8,107.4,296.8,107.4,296.8C107.4,296.8,107.4,296.8,107.4,296.8z"/>
	<path class="st0" d="M80.2,296.8C80.2,296.8,80.2,296.8,80.2,296.8C80.1,296.8,80.1,296.8,80.2,296.8z"/>
	<path class="st0" d="M105.6,296.8c0.2,0,0.3,0,0.6,0c-0.3,0-0.6,0-0.8-0.1c-0.2,0-0.3,0.1-0.5,0.1
		C105.1,296.8,105.3,296.8,105.6,296.8z"/>
	<path class="st0" d="M296.9,120.1c0,0.2,0,0.3,0,0.4c0-0.1,0-0.1,0-0.2L296.9,120.1z"/>
	<path class="st0" d="M297,221.1l-0.1,5.4c0.1-1,0.3-2.2,0.3,0.3C297.5,220,296.9,228.3,297,221.1z"/>
	<path class="st0" d="M297.1,204.2c0.1,2.9,0.2,0,0.2,0.1C297.3,202.5,297.2,202,297.1,204.2z"/>
	<path class="st0" d="M297.1,82.1l0.3,0.3C297.4,80.1,297.3,82.4,297.1,82.1z"/>
	<polygon class="st0" points="297.6,42.2 297.6,45 297.7,46 	"/>
	<path class="st0" d="M132.3,3l0.7,0.3C134.6,3.2,134.9,2.9,132.3,3z"/>
	<path class="st0" d="M43.8,3.3c-1-0.2-3.5-0.3-5-0.1C40.8,3.2,42.8,3.3,43.8,3.3z"/>
	<polygon class="st0" points="3.3,230.3 3.2,228.5 3.3,231.9 	"/>
</g>
<g>
	<path class="st2" d="M296.9,120.1c0-0.3,0-0.7,0-1.1L296.9,120.1z"/>
	<path class="st2" d="M297.1,16.4c0,0.8,0,1.1,0.1,1.1C297.2,16.8,297.2,16.2,297.1,16.4z"/>
	<path class="st2" d="M291.3,3c0.4,0,0.7,0,1,0C291.9,3,291.6,3,291.3,3z"/>
	<path class="st2" d="M297,119l0.1-2.7C297,116.1,297,117.6,297,119z"/>
	<path class="st2" d="M297.2,164.2l0,0.8c0,0.2,0.1,0.5,0.1,0.7L297.2,164.2z"/>
	<path class="st2" d="M297.3,198.9c0-0.8-0.3-1.1-0.4-1.4c0.1,0.4,0.2,1,0.2,1.7C297.1,199.3,297.2,199.2,297.3,198.9z"/>
	<path class="st2" d="M296.8,254l0,1C296.8,254.7,296.8,254.3,296.8,254z"/>
	<path class="st2" d="M297.3,139.4c0-0.1,0.1-0.2,0.1-0.3C297.4,139.1,297.3,139.2,297.3,139.4z"/>
	<path class="st2" d="M259.2,2.7c0.1,0,0.1,0,0.1,0C260.2,2.6,259.8,2.6,259.2,2.7z"/>
	<path class="st2" d="M3.4,43.7c0.3-3.3,0.3,5.4,0.6,0.4C3.9,44.5,3.5,39.5,3.4,43.7z"/>
	<path class="st2" d="M186.1,3c0,0-0.2-0.1-0.8-0.1C185.5,2.9,185.8,2.9,186.1,3z"/>
	<path class="st2" d="M240.4,3.2l-1.4,0C239.6,3.2,240,3.2,240.4,3.2z"/>
	<path class="st2" d="M156.2,3.2c0.2,0,0.4,0,0.6,0C156.6,3.2,156.4,3.2,156.2,3.2z"/>
	<path class="st2" d="M156.2,3.2c-0.4,0-0.7,0-1.4,0c0.1,0,0.2,0,0.3,0C155.4,3.2,155.7,3.2,156.2,3.2z"/>
	<path class="st2" d="M127.1,3.2c0.2,0,0.4,0,0.5,0.1c0.3,0,0.6,0,0.9,0L127.1,3.2z"/>
	<path class="st2" d="M297.5,38.9c-0.2-2.3-0.2,4.7-0.4,2.7c0-4,0.5-8.2,0.5-9.4c0.2-5.5-0.5-5.1-0.4-10.8c-0.1,0.7-0.4,1.4-0.5-2.9
		c0-4,0.5-4.9,0.6-2.4c0,1,0,1.4-0.1,1.4c0,1.3,0.1,3,0.2,1.4l-0.1-0.5c0.1-2,0.1-7.5,0.3-6.2c-0.1-2.8-0.2-1.5-0.2,0.4
		c0-1.6,0.1-3,0.1-4.3c0-1.8,0-3.4,0-5.3c-0.9,0-1.9,0-2.9,0c-0.7,0-1.4,0-2.2,0c0.8,0.1,1.6,0.2,0.8,0.2c-7.7-0.1-3.4,0.2-8.6,0.3
		c-3-0.2,1.1-0.4-4.2-0.3c-3.2-0.1-0.7-0.3,0.6-0.4c-4.8,0.2-9-0.2-11.7-0.2l2.5-0.1c-1.5,0.1-2.8,0.1-4,0.1l1.4,0.2
		c-1.5,0-2.7,0-2.7-0.1c-1.5,0.2,1.2,0.4-1.9,0.6c-2-0.1-6,0.1-6.7-0.2c5.6,0.1,0.5-0.2,3.4-0.3c-0.8,0-1.6,0-2.6,0
		c-0.2,0,0.2-0.1,0.6-0.1c-6-0.3-2.7,0.4-8.9,0.3c0.8-0.2-1.4-0.3-2.4-0.3c2.5,0,1.2,0.3-1.1,0.4c-4-0.1-4.3,0.1-6.4,0.1l2.4,0.1
		c-0.8,0.2-2.8,0.2-5.5,0.2c-0.2-0.1,2.5-0.1,1.5-0.2c-3.1,0.3-6.9-0.3-11.2-0.1c-2-0.1-0.2-0.3-1.9-0.4c-4.8,0.2-5.2-0.2-10.2-0.1
		c1.5,0.2,1.7,0.2-1.8,0.4l8.3-0.2l-5.3,0.3c2.5,0,5.3-0.2,6.8-0.1c-2.5,0.2-2.3,0.1-1.1,0.3c-3.4-0.4-6.8,0.2-10.7,0l0.1-0.6
		c-5.9-0.3-10.6,0.3-18.3,0.2l2.5,0.1c-1,0.2-4.8,0-7.3,0.1c0.2-0.2-1.3-0.3-2.4-0.4c0.1,0.1-5.7,0-6.4,0.4l-3.4-0.3
		c-6.2-0.1-7.1,0.6-13.1,0.5c1.8-0.2-0.9-0.4,3.1-0.5c-2,0-3.8,0-3.8,0.1c-1.2-0.1-5.5,0.3-7.4,0.1c-0.8,0.1-1.1,0.3-3.4,0.3
		c-0.2,0-0.1-0.1-0.1-0.1c-0.5,0.1-3.3,0.1-1.5,0.3c-6.2-0.6-17.2,0-22.6-0.5c-4.4,0-9.6,0.1-13.6,0.1c0.3-0.1,0-0.1,0.8-0.1
		c-5.5-0.2-3.4,0.6-9.6,0.4c-3.2-0.3,3.3-0.2,1.3-0.3c-0.9-0.6-7.5,0.1-11.7-0.3l1,0c-3.2-0.2-7.8,0.2-13,0.2c0,0,0.3-0.1,0-0.1
		c-3.6,0.3-10.3,0.4-15.4,0.5c1.6-0.3,2.3-0.1,1.3-0.4c-2.3,0,0.7,0.4-3.8,0.5c-1.5-0.1-4.7-0.3-5.1-0.5l4.2,0c-2.2-0.4-5.5,0-7.7,0
		l0.3-0.2C50.1,3.1,50,3.5,43,3.5l0.7,0.1c-3.8,0.4-3.2-0.2-7,0.1l-1.2-0.4C33,3.4,26.7,3.7,22.2,3.7c2.6-0.3,7.9-0.4,11.1-0.6
		c-2.5,0-8.5,0-9.8,0.2c1,0,2.3-0.1,3.3-0.1c-3.1,0.3-7.1,0.5-12.1,0.5c0.3-0.3-1-0.4-3-0.4c-1,0-2.2,0-3.4,0c-1.5,0-3.1,0-4.6,0
		c0,0.9,0,1.9,0,2.8c0,0.6,0,1.2-0.1,1.8c0,1.1-0.1,2-0.2,2.7c0.3,8.8-0.1,17.5-0.1,27.7c0.6-3.6,0,3,0.6,2.4c0,2.4,0,3.3,0,3.5
		l0-0.5C4,43.7,4,44,4,44h0l-0.4,7.3c-0.2,1.7-0.1-2.3-0.3-2c0,5.2-0.3,2.2-0.4,5.7c0.2-0.7,0.3,1.8,0.2,4.8l0.3-4.2
		c0.3,7.3-0.5,6.3-0.2,13.7L3,66.9c0.1,3.8,0,14,0.5,17.7c-0.1,0.7-0.2,1.6-0.3-0.1c-0.1,9,0.5,20.1,0.2,27.2l-0.1-0.7
		c0,1.7,0.3,2.9,0.1,5c-0.1-0.1-0.1-0.7-0.2,0.1c0.1,0.9,0.3,4.5,0.2,6.7l-0.2-1.9c-0.2,8.8,0.4,13.5,0.5,20.9
		c-0.4,0-0.6,6.9-0.7,10.4l-0.1-0.1c-0.1,10.3,0.4,17.4,0.5,27c-0.5,5.9-0.2,20-0.5,29.5c0.1-1.5,0.3,0.2,0.4,1.9
		c-0.1,2.2,0.3,6.2-0.1,5.8l0-0.8c-0.4,1.7-0.3,6.3-0.3,9.8l0.5,0.6c-0.8,9.3,0.3,24.5-0.4,29.6c0.1,2.3,0.1,5,0.3,7.3l-0.3-0.1
		c-0.1,6.2-0.1,9.4,0,17.1L3,278.1c0,4.4,0.8,5.5,0.8,9.5l-0.4,1.2c0,2.8,0,5.5-0.1,8.3c3,0,6,0.1,9,0.1c2.6,0,5.2,0,7.8-0.2
		c-0.1,0.1-0.3,0.2-1.6,0.2c3.5,0,13.2,0.3,12.6-0.2c0.8,0.3,8,0,11.9-0.2l-0.6,0.3c3.5-0.4,3.6-0.5,8.4-0.6c1.1,0,1,0.2-0.5,0.2
		c3.8,0.1,3-0.3,7.6-0.1l-1.7,0.2c3.9,0,3.6-0.1,5.8-0.3c2.5-0.1,7.5,0.1,8,0.3c0.5-0.2,2.7-0.4,5-0.3c0.3,0.1-0.5,0.2-1,0.2
		c6.6,0.2,9.8-0.3,14.3-0.1c0.1,0.1,0.4,0.1,0.8,0.2c-4.8,0-8.7,0-9,0c0.1,0.3,4.2,0.3,0.9,0.7c3.4-0.2,9.2-0.6,13.3-0.5
		c0.2,0,0.4,0,0.5,0.1l-0.4,0c0.9,0,1.8,0,2.6,0c1.3,0,2.1,0.1,3.4,0.1c0.5,0.2,4.8,0.1,6.9,0.1c-0.2-0.3,2.5-0.2,0.1-0.5
		c0.1,0-0.7,0-1.9,0c-0.3,0-0.7,0-0.9,0c0,0,0.1,0,0.1,0c-1.4,0-3.2,0-5.2,0c1.7-0.1,3.4-0.3,5.7-0.1c1.1-0.2,2.3-0.4,2.9-0.5
		c2.9,0.4,8.4,0.6,9.2,0.8c6.4-0.2,15.1-0.1,19.2-0.6c1.8-0.1,2.1,0.2,2.8,0.2c-1.1,0.1-2.3,0-2.9,0.1c3.7-0.1,10.8-0.1,11.7-0.4
		c4.6,0.2-2.6,0.3,3.7,0.3l-0.9,0.1c12.4,0.6,20.2-0.9,34-0.2c-1,0-1.4-0.1-1.6-0.1c15.7,0.3,32.4-0.3,47.9,0.2
		c4.4,0.1,4.9-0.1,7.6-0.3l1,0.3l4.6-0.3c6.5-0.3,11.3,0.7,19.6,0.3l-1.1-0.2c3,0,9.4-0.1,8.9,0.1c0.3,0,1-0.2,2.1-0.1l0.1,0.2
		l7.3-0.3c5.7,0.1-0.9,0.6,7.4,0.7c3.1-0.1,8.7-0.5,7.6-0.6c-1.2,0-3.2-0.1-3.3-0.3l2.7-0.1c0,0,0,0.1,0,0.1c0,0,0,0.1,0,0.1l0.1,0
		c0,0.1,0.1,0.1,0.1,0l0.5-0.1l-0.5,0c0,0,0,0,0-0.1c0,0,0,0,0,0h0v-0.3c1-0.1,1-0.3,0-0.4v-32.5l0.1,0.3l-0.1-1v-4.3
		c1,0.1,0.4,0.5,0.4,1.4c0.2-3.1,0-2.8,0.2-5.4c0-0.3,0.1-0.2,0.1,0.1l-0.1-3c0.1,0.6,0.3-0.5,0.2,1.4c0.2-5.5-0.3-8.8,0-10.9
		l-0.2,0.5c-0.1-5.7,0.3-3.3-0.7-4.1v-3.5l0.8-2.6l-0.2-0.7c0-0.8,0.1-2.3,0.2-2c-0.2-2.9-0.1,0.5-0.3-1.2
		c0.3-3.8-0.1-10.4,0.4-11.2c-0.2-1.3-0.2,3.6-0.3-0.4c0.5-1.1-0.1-4.6,0.2-8.1c0.3,1.1,0.1,4.3,0.4,0.9c-0.5-2.1,0.1-6.7,0-9.6
		c-0.4-0.1-0.2-6.3-0.3-11.2c0.1,0.3,0.2-9.1,0.3-13.7l0.1,0.1c-0.4-0.9-0.3-5.5-0.4-8.9c0.2,0.1,0.3,0.7,0.4,2.6l0-3.2
		c-0.1-0.8-0.2-1.7-0.2-3.8l0.3,0.8c0-4.2-0.6-8.6-0.4-14c-0.2-0.2,0.1,1.9-0.9,1.4v-3c1,0.1,0.4,0.4,0.4,1.2c0-0.5,0-1.8,0.1-2.8
		l0.3,2.3c0.1-2.5-0.2-1.3-0.1-3.3c0.2,0,0.2-1.5,0.3-1.2c0,0.5-0.1,1.7,0,2.5c0-2.2,0.2-5,0.3-5.9c-0.1,0.2-0.3,0-0.3-1.6
		c0-4.2,0.2-1.5,0.3-3.9c-0.1-1,0-3.7-0.3-3.8c0-1.2,0.1-1.5,0.2-2c-0.1-2.2,0-10.3-0.4-7.8l0,0.6c0-0.1,0-0.2,0-0.4
		c-0.3-7.2,0.2-15,0-22.1l0.1,0c-0.1-4.3-0.1-9.5-0.3-12.6c0-1.3,0.2-3,0.3-2.4c-0.1-3.3-0.2-3.6,0-8.3c0.2,3.3,0.2-1.1,0.1,3.4
		c0.1-4.2,0.2-5.2,0-9.8c0.3,1.5,0.3-3.2,0.2-5.2l-0.2,3c0-2.3,0-4.2,0-6.3l0.3,1.1C297.9,52.5,296.8,45.5,297.5,38.9z M103.4,297.1
		c0,0,0.1,0,0.2,0c-0.1,0.1-0.3,0.1-0.6,0.1c-1.4,0-1.9,0-2.1-0.1C101.7,297.1,102.4,297.1,103.4,297.1z M296.5,252.7
		c0,0.2,0,0.3,0,0.4v-1.8C296.5,251.7,296.5,252.2,296.5,252.7z"/>
	<path class="st2" d="M261.2,2.8c0.4,0,0.8,0,1.2,0C261.9,2.8,261.5,2.8,261.2,2.8z"/>
	<path class="st2" d="M151.7,3.4C151.7,3.4,151.7,3.4,151.7,3.4C151.7,3.4,151.7,3.4,151.7,3.4z"/>
	<path class="st2" d="M107.4,296.8C107.4,296.8,107.4,296.8,107.4,296.8C107.4,296.8,107.4,296.8,107.4,296.8z"/>
	<path class="st2" d="M80.2,296.8C80.2,296.8,80.2,296.8,80.2,296.8C80.1,296.8,80.1,296.8,80.2,296.8z"/>
	<path class="st2" d="M105.6,296.8c0.2,0,0.3,0,0.6,0c-0.3,0-0.6,0-0.8-0.1c-0.2,0-0.3,0.1-0.5,0.1
		C105.1,296.8,105.3,296.8,105.6,296.8z"/>
	<path class="st2" d="M296.9,120.1c0,0.2,0,0.3,0,0.4c0-0.1,0-0.1,0-0.2L296.9,120.1z"/>
	<path class="st2" d="M297,221.1l-0.1,5.4c0.1-1,0.3-2.2,0.3,0.3C297.5,220,296.9,228.3,297,221.1z"/>
	<path class="st2" d="M297.1,204.2c0.1,2.9,0.2,0,0.2,0.1C297.3,202.5,297.2,202,297.1,204.2z"/>
	<path class="st2" d="M297.1,82.1l0.3,0.3C297.4,80.1,297.3,82.4,297.1,82.1z"/>
	<polygon class="st2" points="297.6,42.2 297.6,45 297.7,46 	"/>
	<path class="st2" d="M132.3,3l0.7,0.3C134.6,3.2,134.9,2.9,132.3,3z"/>
	<path class="st2" d="M43.8,3.3c-1-0.2-3.5-0.3-5-0.1C40.8,3.2,42.8,3.3,43.8,3.3z"/>
	<polygon class="st2" points="3.3,230.3 3.2,228.5 3.3,231.9 	"/>
</g>
<g>
	<path class="st3" d="M296.9,120.1c0-0.3,0-0.7,0-1.1L296.9,120.1z"/>
	<path class="st3" d="M297.1,16.4c0,0.8,0,1.1,0.1,1.1C297.2,16.8,297.2,16.2,297.1,16.4z"/>
	<path class="st3" d="M291.3,3c0.4,0,0.7,0,1,0C291.9,3,291.6,3,291.3,3z"/>
	<path class="st3" d="M297,119l0.1-2.7C297,116.1,297,117.6,297,119z"/>
	<path class="st3" d="M297.2,164.2l0,0.8c0,0.2,0.1,0.5,0.1,0.7L297.2,164.2z"/>
	<path class="st3" d="M297.3,198.9c0-0.8-0.3-1.1-0.4-1.4c0.1,0.4,0.2,1,0.2,1.7C297.1,199.3,297.2,199.2,297.3,198.9z"/>
	<path class="st3" d="M296.8,254l0,1C296.8,254.7,296.8,254.3,296.8,254z"/>
	<path class="st3" d="M297.3,139.4c0-0.1,0.1-0.2,0.1-0.3C297.4,139.1,297.3,139.2,297.3,139.4z"/>
	<path class="st3" d="M259.2,2.7c0.1,0,0.1,0,0.1,0C260.2,2.6,259.8,2.6,259.2,2.7z"/>
	<path class="st3" d="M3.4,43.7c0.3-3.3,0.3,5.4,0.6,0.4C3.9,44.5,3.5,39.5,3.4,43.7z"/>
	<path class="st3" d="M186.1,3c0,0-0.2-0.1-0.8-0.1C185.5,2.9,185.8,2.9,186.1,3z"/>
	<path class="st3" d="M240.4,3.2l-1.4,0C239.6,3.2,240,3.2,240.4,3.2z"/>
	<path class="st3" d="M156.2,3.2c0.2,0,0.4,0,0.6,0C156.6,3.2,156.4,3.2,156.2,3.2z"/>
	<path class="st3" d="M156.2,3.2c-0.4,0-0.7,0-1.4,0c0.1,0,0.2,0,0.3,0C155.4,3.2,155.7,3.2,156.2,3.2z"/>
	<path class="st3" d="M127.1,3.2c0.2,0,0.4,0,0.5,0.1c0.3,0,0.6,0,0.9,0L127.1,3.2z"/>
	<path class="st3" d="M297.5,38.9c-0.2-2.3-0.2,4.7-0.4,2.7c0-4,0.5-8.2,0.5-9.4c0.2-5.5-0.5-5.1-0.4-10.8c-0.1,0.7-0.4,1.4-0.5-2.9
		c0-4,0.5-4.9,0.6-2.4c0,1,0,1.4-0.1,1.4c0,1.3,0.1,3,0.2,1.4l-0.1-0.5c0.1-2,0.1-7.5,0.3-6.2c-0.1-2.8-0.2-1.5-0.2,0.4
		c0-1.6,0.1-3,0.1-4.3c0-1.8,0-3.4,0-5.3c-0.9,0-1.9,0-2.9,0c-0.7,0-1.4,0-2.2,0c0.8,0.1,1.6,0.2,0.8,0.2c-7.7-0.1-3.4,0.2-8.6,0.3
		c-3-0.2,1.1-0.4-4.2-0.3c-3.2-0.1-0.7-0.3,0.6-0.4c-4.8,0.2-9-0.2-11.7-0.2l2.5-0.1c-1.5,0.1-2.8,0.1-4,0.1l1.4,0.2
		c-1.5,0-2.7,0-2.7-0.1c-1.5,0.2,1.2,0.4-1.9,0.6c-2-0.1-6,0.1-6.7-0.2c5.6,0.1,0.5-0.2,3.4-0.3c-0.8,0-1.6,0-2.6,0
		c-0.2,0,0.2-0.1,0.6-0.1c-6-0.3-2.7,0.4-8.9,0.3c0.8-0.2-1.4-0.3-2.4-0.3c2.5,0,1.2,0.3-1.1,0.4c-4-0.1-4.3,0.1-6.4,0.1l2.4,0.1
		c-0.8,0.2-2.8,0.2-5.5,0.2c-0.2-0.1,2.5-0.1,1.5-0.2c-3.1,0.3-6.9-0.3-11.2-0.1c-2-0.1-0.2-0.3-1.9-0.4c-4.8,0.2-5.2-0.2-10.2-0.1
		c1.5,0.2,1.7,0.2-1.8,0.4l8.3-0.2l-5.3,0.3c2.5,0,5.3-0.2,6.8-0.1c-2.5,0.2-2.3,0.1-1.1,0.3c-3.4-0.4-6.8,0.2-10.7,0l0.1-0.6
		c-5.9-0.3-10.6,0.3-18.3,0.2l2.5,0.1c-1,0.2-4.8,0-7.3,0.1c0.2-0.2-1.3-0.3-2.4-0.4c0.1,0.1-5.7,0-6.4,0.4l-3.4-0.3
		c-6.2-0.1-7.1,0.6-13.1,0.5c1.8-0.2-0.9-0.4,3.1-0.5c-2,0-3.8,0-3.8,0.1c-1.2-0.1-5.5,0.3-7.4,0.1c-0.8,0.1-1.1,0.3-3.4,0.3
		c-0.2,0-0.1-0.1-0.1-0.1c-0.5,0.1-3.3,0.1-1.5,0.3c-6.2-0.6-17.2,0-22.6-0.5c-4.4,0-9.6,0.1-13.6,0.1c0.3-0.1,0-0.1,0.8-0.1
		c-5.5-0.2-3.4,0.6-9.6,0.4c-3.2-0.3,3.3-0.2,1.3-0.3c-0.9-0.6-7.5,0.1-11.7-0.3l1,0c-3.2-0.2-7.8,0.2-13,0.2c0,0,0.3-0.1,0-0.1
		c-3.6,0.3-10.3,0.4-15.4,0.5c1.6-0.3,2.3-0.1,1.3-0.4c-2.3,0,0.7,0.4-3.8,0.5c-1.5-0.1-4.7-0.3-5.1-0.5l4.2,0c-2.2-0.4-5.5,0-7.7,0
		l0.3-0.2C50.1,3.1,50,3.5,43,3.5l0.7,0.1c-3.8,0.4-3.2-0.2-7,0.1l-1.2-0.4C33,3.4,26.7,3.7,22.2,3.7c2.6-0.3,7.9-0.4,11.1-0.6
		c-2.5,0-8.5,0-9.8,0.2c1,0,2.3-0.1,3.3-0.1c-3.1,0.3-7.1,0.5-12.1,0.5c0.3-0.3-1-0.4-3-0.4c-1,0-2.2,0-3.4,0c-1.5,0-3.1,0-4.6,0
		c0,0.9,0,1.9,0,2.8c0,0.6,0,1.2-0.1,1.8c0,1.1-0.1,2-0.2,2.7c0.3,8.8-0.1,17.5-0.1,27.7c0.6-3.6,0,3,0.6,2.4c0,2.4,0,3.3,0,3.5
		l0-0.5C4,43.7,4,44,4,44h0l-0.4,7.3c-0.2,1.7-0.1-2.3-0.3-2c0,5.2-0.3,2.2-0.4,5.7c0.2-0.7,0.3,1.8,0.2,4.8l0.3-4.2
		c0.3,7.3-0.5,6.3-0.2,13.7L3,66.9c0.1,3.8,0,14,0.5,17.7c-0.1,0.7-0.2,1.6-0.3-0.1c-0.1,9,0.5,20.1,0.2,27.2l-0.1-0.7
		c0,1.7,0.3,2.9,0.1,5c-0.1-0.1-0.1-0.7-0.2,0.1c0.1,0.9,0.3,4.5,0.2,6.7l-0.2-1.9c-0.2,8.8,0.4,13.5,0.5,20.9
		c-0.4,0-0.6,6.9-0.7,10.4l-0.1-0.1c-0.1,10.3,0.4,17.4,0.5,27c-0.5,5.9-0.2,20-0.5,29.5c0.1-1.5,0.3,0.2,0.4,1.9
		c-0.1,2.2,0.3,6.2-0.1,5.8l0-0.8c-0.4,1.7-0.3,6.3-0.3,9.8l0.5,0.6c-0.8,9.3,0.3,24.5-0.4,29.6c0.1,2.3,0.1,5,0.3,7.3l-0.3-0.1
		c-0.1,6.2-0.1,9.4,0,17.1L3,278.1c0,4.4,0.8,5.5,0.8,9.5l-0.4,1.2c0,2.8,0,5.5-0.1,8.3c3,0,6,0.1,9,0.1c2.6,0,5.2,0,7.8-0.2
		c-0.1,0.1-0.3,0.2-1.6,0.2c3.5,0,13.2,0.3,12.6-0.2c0.8,0.3,8,0,11.9-0.2l-0.6,0.3c3.5-0.4,3.6-0.5,8.4-0.6c1.1,0,1,0.2-0.5,0.2
		c3.8,0.1,3-0.3,7.6-0.1l-1.7,0.2c3.9,0,3.6-0.1,5.8-0.3c2.5-0.1,7.5,0.1,8,0.3c0.5-0.2,2.7-0.4,5-0.3c0.3,0.1-0.5,0.2-1,0.2
		c6.6,0.2,9.8-0.3,14.3-0.1c0.1,0.1,0.4,0.1,0.8,0.2c-4.8,0-8.7,0-9,0c0.1,0.3,4.2,0.3,0.9,0.7c3.4-0.2,9.2-0.6,13.3-0.5
		c0.2,0,0.4,0,0.5,0.1l-0.4,0c0.9,0,1.8,0,2.6,0c1.3,0,2.1,0.1,3.4,0.1c0.5,0.2,4.8,0.1,6.9,0.1c-0.2-0.3,2.5-0.2,0.1-0.5
		c0.1,0-0.7,0-1.9,0c-0.3,0-0.7,0-0.9,0c0,0,0.1,0,0.1,0c-1.4,0-3.2,0-5.2,0c1.7-0.1,3.4-0.3,5.7-0.1c1.1-0.2,2.3-0.4,2.9-0.5
		c2.9,0.4,8.4,0.6,9.2,0.8c6.4-0.2,15.1-0.1,19.2-0.6c1.8-0.1,2.1,0.2,2.8,0.2c-1.1,0.1-2.3,0-2.9,0.1c3.7-0.1,10.8-0.1,11.7-0.4
		c4.6,0.2-2.6,0.3,3.7,0.3l-0.9,0.1c12.4,0.6,20.2-0.9,34-0.2c-1,0-1.4-0.1-1.6-0.1c15.7,0.3,32.4-0.3,47.9,0.2
		c4.4,0.1,4.9-0.1,7.6-0.3l1,0.3l4.6-0.3c6.5-0.3,11.3,0.7,19.6,0.3l-1.1-0.2c3,0,9.4-0.1,8.9,0.1c0.3,0,1-0.2,2.1-0.1l0.1,0.2
		l7.3-0.3c5.7,0.1-0.9,0.6,7.4,0.7c3.1-0.1,8.7-0.5,7.6-0.6c-1.2,0-3.2-0.1-3.3-0.3l2.7-0.1c0,0,0,0.1,0,0.1c0,0,0,0.1,0,0.1l0.1,0
		c0,0.1,0.1,0.1,0.1,0l0.5-0.1l-0.5,0c0,0,0,0,0-0.1c0,0,0,0,0,0h0v-0.3c1-0.1,1-0.3,0-0.4v-32.5l0.1,0.3l-0.1-1v-4.3
		c1,0.1,0.4,0.5,0.4,1.4c0.2-3.1,0-2.8,0.2-5.4c0-0.3,0.1-0.2,0.1,0.1l-0.1-3c0.1,0.6,0.3-0.5,0.2,1.4c0.2-5.5-0.3-8.8,0-10.9
		l-0.2,0.5c-0.1-5.7,0.3-3.3-0.7-4.1v-3.5l0.8-2.6l-0.2-0.7c0-0.8,0.1-2.3,0.2-2c-0.2-2.9-0.1,0.5-0.3-1.2
		c0.3-3.8-0.1-10.4,0.4-11.2c-0.2-1.3-0.2,3.6-0.3-0.4c0.5-1.1-0.1-4.6,0.2-8.1c0.3,1.1,0.1,4.3,0.4,0.9c-0.5-2.1,0.1-6.7,0-9.6
		c-0.4-0.1-0.2-6.3-0.3-11.2c0.1,0.3,0.2-9.1,0.3-13.7l0.1,0.1c-0.4-0.9-0.3-5.5-0.4-8.9c0.2,0.1,0.3,0.7,0.4,2.6l0-3.2
		c-0.1-0.8-0.2-1.7-0.2-3.8l0.3,0.8c0-4.2-0.6-8.6-0.4-14c-0.2-0.2,0.1,1.9-0.9,1.4v-3c1,0.1,0.4,0.4,0.4,1.2c0-0.5,0-1.8,0.1-2.8
		l0.3,2.3c0.1-2.5-0.2-1.3-0.1-3.3c0.2,0,0.2-1.5,0.3-1.2c0,0.5-0.1,1.7,0,2.5c0-2.2,0.2-5,0.3-5.9c-0.1,0.2-0.3,0-0.3-1.6
		c0-4.2,0.2-1.5,0.3-3.9c-0.1-1,0-3.7-0.3-3.8c0-1.2,0.1-1.5,0.2-2c-0.1-2.2,0-10.3-0.4-7.8l0,0.6c0-0.1,0-0.2,0-0.4
		c-0.3-7.2,0.2-15,0-22.1l0.1,0c-0.1-4.3-0.1-9.5-0.3-12.6c0-1.3,0.2-3,0.3-2.4c-0.1-3.3-0.2-3.6,0-8.3c0.2,3.3,0.2-1.1,0.1,3.4
		c0.1-4.2,0.2-5.2,0-9.8c0.3,1.5,0.3-3.2,0.2-5.2l-0.2,3c0-2.3,0-4.2,0-6.3l0.3,1.1C297.9,52.5,296.8,45.5,297.5,38.9z M103.4,297.1
		c0,0,0.1,0,0.2,0c-0.1,0.1-0.3,0.1-0.6,0.1c-1.4,0-1.9,0-2.1-0.1C101.7,297.1,102.4,297.1,103.4,297.1z M296.5,252.7
		c0,0.2,0,0.3,0,0.4v-1.8C296.5,251.7,296.5,252.2,296.5,252.7z"/>
	<path class="st3" d="M261.2,2.8c0.4,0,0.8,0,1.2,0C261.9,2.8,261.5,2.8,261.2,2.8z"/>
	<path class="st3" d="M151.7,3.4C151.7,3.4,151.7,3.4,151.7,3.4C151.7,3.4,151.7,3.4,151.7,3.4z"/>
	<path class="st3" d="M107.4,296.8C107.4,296.8,107.4,296.8,107.4,296.8C107.4,296.8,107.4,296.8,107.4,296.8z"/>
	<path class="st3" d="M80.2,296.8C80.2,296.8,80.2,296.8,80.2,296.8C80.1,296.8,80.1,296.8,80.2,296.8z"/>
	<path class="st3" d="M105.6,296.8c0.2,0,0.3,0,0.6,0c-0.3,0-0.6,0-0.8-0.1c-0.2,0-0.3,0.1-0.5,0.1
		C105.1,296.8,105.3,296.8,105.6,296.8z"/>
	<path class="st3" d="M296.9,120.1c0,0.2,0,0.3,0,0.4c0-0.1,0-0.1,0-0.2L296.9,120.1z"/>
	<path class="st3" d="M297,221.1l-0.1,5.4c0.1-1,0.3-2.2,0.3,0.3C297.5,220,296.9,228.3,297,221.1z"/>
	<path class="st3" d="M297.1,204.2c0.1,2.9,0.2,0,0.2,0.1C297.3,202.5,297.2,202,297.1,204.2z"/>
	<path class="st3" d="M297.1,82.1l0.3,0.3C297.4,80.1,297.3,82.4,297.1,82.1z"/>
	<polygon class="st3" points="297.6,42.2 297.6,45 297.7,46 	"/>
	<path class="st3" d="M132.3,3l0.7,0.3C134.6,3.2,134.9,2.9,132.3,3z"/>
	<path class="st3" d="M43.8,3.3c-1-0.2-3.5-0.3-5-0.1C40.8,3.2,42.8,3.3,43.8,3.3z"/>
	<polygon class="st3" points="3.3,230.3 3.2,228.5 3.3,231.9 	"/>
</g>
<g>
	<path class="st4" d="M296.9,120.1c0-0.3,0-0.7,0-1.1L296.9,120.1z"/>
	<path class="st4" d="M297.1,16.4c0,0.8,0,1.1,0.1,1.1C297.2,16.8,297.2,16.2,297.1,16.4z"/>
	<path class="st4" d="M291.3,3c0.4,0,0.7,0,1,0C291.9,3,291.6,3,291.3,3z"/>
	<path class="st4" d="M297,119l0.1-2.7C297,116.1,297,117.6,297,119z"/>
	<path class="st4" d="M297.2,164.2l0,0.8c0,0.2,0.1,0.5,0.1,0.7L297.2,164.2z"/>
	<path class="st4" d="M297.3,198.9c0-0.8-0.3-1.1-0.4-1.4c0.1,0.4,0.2,1,0.2,1.7C297.1,199.3,297.2,199.2,297.3,198.9z"/>
	<path class="st4" d="M296.8,254l0,1C296.8,254.7,296.8,254.3,296.8,254z"/>
	<path class="st4" d="M297.3,139.4c0-0.1,0.1-0.2,0.1-0.3C297.4,139.1,297.3,139.2,297.3,139.4z"/>
	<path class="st4" d="M259.2,2.7c0.1,0,0.1,0,0.1,0C260.2,2.6,259.8,2.6,259.2,2.7z"/>
	<path class="st4" d="M3.4,43.7c0.3-3.3,0.3,5.4,0.6,0.4C3.9,44.5,3.5,39.5,3.4,43.7z"/>
	<path class="st4" d="M186.1,3c0,0-0.2-0.1-0.8-0.1C185.5,2.9,185.8,2.9,186.1,3z"/>
	<path class="st4" d="M240.4,3.2l-1.4,0C239.6,3.2,240,3.2,240.4,3.2z"/>
	<path class="st4" d="M156.2,3.2c0.2,0,0.4,0,0.6,0C156.6,3.2,156.4,3.2,156.2,3.2z"/>
	<path class="st4" d="M156.2,3.2c-0.4,0-0.7,0-1.4,0c0.1,0,0.2,0,0.3,0C155.4,3.2,155.7,3.2,156.2,3.2z"/>
	<path class="st4" d="M127.1,3.2c0.2,0,0.4,0,0.5,0.1c0.3,0,0.6,0,0.9,0L127.1,3.2z"/>
	<path class="st4" d="M297.5,38.9c-0.2-2.3-0.2,4.7-0.4,2.7c0-4,0.5-8.2,0.5-9.4c0.2-5.5-0.5-5.1-0.4-10.8c-0.1,0.7-0.4,1.4-0.5-2.9
		c0-4,0.5-4.9,0.6-2.4c0,1,0,1.4-0.1,1.4c0,1.3,0.1,3,0.2,1.4l-0.1-0.5c0.1-2,0.1-7.5,0.3-6.2c-0.1-2.8-0.2-1.5-0.2,0.4
		c0-1.6,0.1-3,0.1-4.3c0-1.8,0-3.4,0-5.3c-0.9,0-1.9,0-2.9,0c-0.7,0-1.4,0-2.2,0c0.8,0.1,1.6,0.2,0.8,0.2c-7.7-0.1-3.4,0.2-8.6,0.3
		c-3-0.2,1.1-0.4-4.2-0.3c-3.2-0.1-0.7-0.3,0.6-0.4c-4.8,0.2-9-0.2-11.7-0.2l2.5-0.1c-1.5,0.1-2.8,0.1-4,0.1l1.4,0.2
		c-1.5,0-2.7,0-2.7-0.1c-1.5,0.2,1.2,0.4-1.9,0.6c-2-0.1-6,0.1-6.7-0.2c5.6,0.1,0.5-0.2,3.4-0.3c-0.8,0-1.6,0-2.6,0
		c-0.2,0,0.2-0.1,0.6-0.1c-6-0.3-2.7,0.4-8.9,0.3c0.8-0.2-1.4-0.3-2.4-0.3c2.5,0,1.2,0.3-1.1,0.4c-4-0.1-4.3,0.1-6.4,0.1l2.4,0.1
		c-0.8,0.2-2.8,0.2-5.5,0.2c-0.2-0.1,2.5-0.1,1.5-0.2c-3.1,0.3-6.9-0.3-11.2-0.1c-2-0.1-0.2-0.3-1.9-0.4c-4.8,0.2-5.2-0.2-10.2-0.1
		c1.5,0.2,1.7,0.2-1.8,0.4l8.3-0.2l-5.3,0.3c2.5,0,5.3-0.2,6.8-0.1c-2.5,0.2-2.3,0.1-1.1,0.3c-3.4-0.4-6.8,0.2-10.7,0l0.1-0.6
		c-5.9-0.3-10.6,0.3-18.3,0.2l2.5,0.1c-1,0.2-4.8,0-7.3,0.1c0.2-0.2-1.3-0.3-2.4-0.4c0.1,0.1-5.7,0-6.4,0.4l-3.4-0.3
		c-6.2-0.1-7.1,0.6-13.1,0.5c1.8-0.2-0.9-0.4,3.1-0.5c-2,0-3.8,0-3.8,0.1c-1.2-0.1-5.5,0.3-7.4,0.1c-0.8,0.1-1.1,0.3-3.4,0.3
		c-0.2,0-0.1-0.1-0.1-0.1c-0.5,0.1-3.3,0.1-1.5,0.3c-6.2-0.6-17.2,0-22.6-0.5c-4.4,0-9.6,0.1-13.6,0.1c0.3-0.1,0-0.1,0.8-0.1
		c-5.5-0.2-3.4,0.6-9.6,0.4c-3.2-0.3,3.3-0.2,1.3-0.3c-0.9-0.6-7.5,0.1-11.7-0.3l1,0c-3.2-0.2-7.8,0.2-13,0.2c0,0,0.3-0.1,0-0.1
		c-3.6,0.3-10.3,0.4-15.4,0.5c1.6-0.3,2.3-0.1,1.3-0.4c-2.3,0,0.7,0.4-3.8,0.5c-1.5-0.1-4.7-0.3-5.1-0.5l4.2,0c-2.2-0.4-5.5,0-7.7,0
		l0.3-0.2C50.1,3.1,50,3.5,43,3.5l0.7,0.1c-3.8,0.4-3.2-0.2-7,0.1l-1.2-0.4C33,3.4,26.7,3.7,22.2,3.7c2.6-0.3,7.9-0.4,11.1-0.6
		c-2.5,0-8.5,0-9.8,0.2c1,0,2.3-0.1,3.3-0.1c-3.1,0.3-7.1,0.5-12.1,0.5c0.3-0.3-1-0.4-3-0.4c-1,0-2.2,0-3.4,0c-1.5,0-3.1,0-4.6,0
		c0,0.9,0,1.9,0,2.8c0,0.6,0,1.2-0.1,1.8c0,1.1-0.1,2-0.2,2.7c0.3,8.8-0.1,17.5-0.1,27.7c0.6-3.6,0,3,0.6,2.4c0,2.4,0,3.3,0,3.5
		l0-0.5C4,43.7,4,44,4,44h0l-0.4,7.3c-0.2,1.7-0.1-2.3-0.3-2c0,5.2-0.3,2.2-0.4,5.7c0.2-0.7,0.3,1.8,0.2,4.8l0.3-4.2
		c0.3,7.3-0.5,6.3-0.2,13.7L3,66.9c0.1,3.8,0,14,0.5,17.7c-0.1,0.7-0.2,1.6-0.3-0.1c-0.1,9,0.5,20.1,0.2,27.2l-0.1-0.7
		c0,1.7,0.3,2.9,0.1,5c-0.1-0.1-0.1-0.7-0.2,0.1c0.1,0.9,0.3,4.5,0.2,6.7l-0.2-1.9c-0.2,8.8,0.4,13.5,0.5,20.9
		c-0.4,0-0.6,6.9-0.7,10.4l-0.1-0.1c-0.1,10.3,0.4,17.4,0.5,27c-0.5,5.9-0.2,20-0.5,29.5c0.1-1.5,0.3,0.2,0.4,1.9
		c-0.1,2.2,0.3,6.2-0.1,5.8l0-0.8c-0.4,1.7-0.3,6.3-0.3,9.8l0.5,0.6c-0.8,9.3,0.3,24.5-0.4,29.6c0.1,2.3,0.1,5,0.3,7.3l-0.3-0.1
		c-0.1,6.2-0.1,9.4,0,17.1L3,278.1c0,4.4,0.8,5.5,0.8,9.5l-0.4,1.2c0,2.8,0,5.5-0.1,8.3c3,0,6,0.1,9,0.1c2.6,0,5.2,0,7.8-0.2
		c-0.1,0.1-0.3,0.2-1.6,0.2c3.5,0,13.2,0.3,12.6-0.2c0.8,0.3,8,0,11.9-0.2l-0.6,0.3c3.5-0.4,3.6-0.5,8.4-0.6c1.1,0,1,0.2-0.5,0.2
		c3.8,0.1,3-0.3,7.6-0.1l-1.7,0.2c3.9,0,3.6-0.1,5.8-0.3c2.5-0.1,7.5,0.1,8,0.3c0.5-0.2,2.7-0.4,5-0.3c0.3,0.1-0.5,0.2-1,0.2
		c6.6,0.2,9.8-0.3,14.3-0.1c0.1,0.1,0.4,0.1,0.8,0.2c-4.8,0-8.7,0-9,0c0.1,0.3,4.2,0.3,0.9,0.7c3.4-0.2,9.2-0.6,13.3-0.5
		c0.2,0,0.4,0,0.5,0.1l-0.4,0c0.9,0,1.8,0,2.6,0c1.3,0,2.1,0.1,3.4,0.1c0.5,0.2,4.8,0.1,6.9,0.1c-0.2-0.3,2.5-0.2,0.1-0.5
		c0.1,0-0.7,0-1.9,0c-0.3,0-0.7,0-0.9,0c0,0,0.1,0,0.1,0c-1.4,0-3.2,0-5.2,0c1.7-0.1,3.4-0.3,5.7-0.1c1.1-0.2,2.3-0.4,2.9-0.5
		c2.9,0.4,8.4,0.6,9.2,0.8c6.4-0.2,15.1-0.1,19.2-0.6c1.8-0.1,2.1,0.2,2.8,0.2c-1.1,0.1-2.3,0-2.9,0.1c3.7-0.1,10.8-0.1,11.7-0.4
		c4.6,0.2-2.6,0.3,3.7,0.3l-0.9,0.1c12.4,0.6,20.2-0.9,34-0.2c-1,0-1.4-0.1-1.6-0.1c15.7,0.3,32.4-0.3,47.9,0.2
		c4.4,0.1,4.9-0.1,7.6-0.3l1,0.3l4.6-0.3c6.5-0.3,11.3,0.7,19.6,0.3l-1.1-0.2c3,0,9.4-0.1,8.9,0.1c0.3,0,1-0.2,2.1-0.1l0.1,0.2
		l7.3-0.3c5.7,0.1-0.9,0.6,7.4,0.7c3.1-0.1,8.7-0.5,7.6-0.6c-1.2,0-3.2-0.1-3.3-0.3l2.7-0.1c0,0,0,0.1,0,0.1c0,0,0,0.1,0,0.1l0.1,0
		c0,0.1,0.1,0.1,0.1,0l0.5-0.1l-0.5,0c0,0,0,0,0-0.1c0,0,0,0,0,0h0v-0.3c1-0.1,1-0.3,0-0.4v-32.5l0.1,0.3l-0.1-1v-4.3
		c1,0.1,0.4,0.5,0.4,1.4c0.2-3.1,0-2.8,0.2-5.4c0-0.3,0.1-0.2,0.1,0.1l-0.1-3c0.1,0.6,0.3-0.5,0.2,1.4c0.2-5.5-0.3-8.8,0-10.9
		l-0.2,0.5c-0.1-5.7,0.3-3.3-0.7-4.1v-3.5l0.8-2.6l-0.2-0.7c0-0.8,0.1-2.3,0.2-2c-0.2-2.9-0.1,0.5-0.3-1.2
		c0.3-3.8-0.1-10.4,0.4-11.2c-0.2-1.3-0.2,3.6-0.3-0.4c0.5-1.1-0.1-4.6,0.2-8.1c0.3,1.1,0.1,4.3,0.4,0.9c-0.5-2.1,0.1-6.7,0-9.6
		c-0.4-0.1-0.2-6.3-0.3-11.2c0.1,0.3,0.2-9.1,0.3-13.7l0.1,0.1c-0.4-0.9-0.3-5.5-0.4-8.9c0.2,0.1,0.3,0.7,0.4,2.6l0-3.2
		c-0.1-0.8-0.2-1.7-0.2-3.8l0.3,0.8c0-4.2-0.6-8.6-0.4-14c-0.2-0.2,0.1,1.9-0.9,1.4v-3c1,0.1,0.4,0.4,0.4,1.2c0-0.5,0-1.8,0.1-2.8
		l0.3,2.3c0.1-2.5-0.2-1.3-0.1-3.3c0.2,0,0.2-1.5,0.3-1.2c0,0.5-0.1,1.7,0,2.5c0-2.2,0.2-5,0.3-5.9c-0.1,0.2-0.3,0-0.3-1.6
		c0-4.2,0.2-1.5,0.3-3.9c-0.1-1,0-3.7-0.3-3.8c0-1.2,0.1-1.5,0.2-2c-0.1-2.2,0-10.3-0.4-7.8l0,0.6c0-0.1,0-0.2,0-0.4
		c-0.3-7.2,0.2-15,0-22.1l0.1,0c-0.1-4.3-0.1-9.5-0.3-12.6c0-1.3,0.2-3,0.3-2.4c-0.1-3.3-0.2-3.6,0-8.3c0.2,3.3,0.2-1.1,0.1,3.4
		c0.1-4.2,0.2-5.2,0-9.8c0.3,1.5,0.3-3.2,0.2-5.2l-0.2,3c0-2.3,0-4.2,0-6.3l0.3,1.1C297.9,52.5,296.8,45.5,297.5,38.9z M103.4,297.1
		c0,0,0.1,0,0.2,0c-0.1,0.1-0.3,0.1-0.6,0.1c-1.4,0-1.9,0-2.1-0.1C101.7,297.1,102.4,297.1,103.4,297.1z M296.5,252.7
		c0,0.2,0,0.3,0,0.4v-1.8C296.5,251.7,296.5,252.2,296.5,252.7z"/>
	<path class="st4" d="M261.2,2.8c0.4,0,0.8,0,1.2,0C261.9,2.8,261.5,2.8,261.2,2.8z"/>
	<path class="st4" d="M151.7,3.4C151.7,3.4,151.7,3.4,151.7,3.4C151.7,3.4,151.7,3.4,151.7,3.4z"/>
	<path class="st4" d="M107.4,296.8C107.4,296.8,107.4,296.8,107.4,296.8C107.4,296.8,107.4,296.8,107.4,296.8z"/>
	<path class="st4" d="M80.2,296.8C80.2,296.8,80.2,296.8,80.2,296.8C80.1,296.8,80.1,296.8,80.2,296.8z"/>
	<path class="st4" d="M105.6,296.8c0.2,0,0.3,0,0.6,0c-0.3,0-0.6,0-0.8-0.1c-0.2,0-0.3,0.1-0.5,0.1
		C105.1,296.8,105.3,296.8,105.6,296.8z"/>
	<path class="st4" d="M296.9,120.1c0,0.2,0,0.3,0,0.4c0-0.1,0-0.1,0-0.2L296.9,120.1z"/>
	<path class="st4" d="M297,221.1l-0.1,5.4c0.1-1,0.3-2.2,0.3,0.3C297.5,220,296.9,228.3,297,221.1z"/>
	<path class="st4" d="M297.1,204.2c0.1,2.9,0.2,0,0.2,0.1C297.3,202.5,297.2,202,297.1,204.2z"/>
	<path class="st4" d="M297.1,82.1l0.3,0.3C297.4,80.1,297.3,82.4,297.1,82.1z"/>
	<polygon class="st4" points="297.6,42.2 297.6,45 297.7,46 	"/>
	<path class="st4" d="M132.3,3l0.7,0.3C134.6,3.2,134.9,2.9,132.3,3z"/>
	<path class="st4" d="M43.8,3.3c-1-0.2-3.5-0.3-5-0.1C40.8,3.2,42.8,3.3,43.8,3.3z"/>
	<polygon class="st4" points="3.3,230.3 3.2,228.5 3.3,231.9 	"/>
</g>
</svg>
